<svg width="221" height="258" viewBox="0 0 221 258" fill="none" xmlns="http://www.w3.org/2000/svg">
<path d="M167.5 258C188.211 258 205 241.211 205 220.5C205 199.789 188.211 183 167.5 183C146.789 183 130 199.789 130 220.5C130 241.211 146.789 258 167.5 258Z" fill="#2D89E7"/>
<path opacity="0.53" d="M167.5 258C188.211 258 205 241.211 205 220.5C205 199.789 188.211 183 167.5 183C146.789 183 130 199.789 130 220.5C130 241.211 146.789 258 167.5 258Z" fill="white"/>
<path d="M179.274 231.17C176.665 231.17 174.468 232.939 173.802 235.338H158.983C158.442 233.385 156.885 231.857 154.918 231.353V229.657H180.394C181.122 229.657 181.746 229.14 181.883 228.424L184.882 212.644C184.967 212.201 184.848 211.743 184.561 211.395C184.272 211.047 183.845 210.846 183.394 210.846H154.919V203.756C154.919 203.096 154.492 202.513 153.863 202.311L145.617 199.688C144.819 199.438 143.967 199.874 143.712 200.672C143.459 201.47 143.899 202.322 144.697 202.577L151.888 204.865V231.41C149.545 232.111 147.831 234.284 147.831 236.854C147.831 239.988 150.38 242.536 153.513 242.536C156.122 242.536 158.319 240.768 158.985 238.369H173.805C174.47 240.768 176.668 242.536 179.276 242.536C182.41 242.536 184.959 239.988 184.959 236.854C184.957 233.72 182.408 231.17 179.274 231.17ZM161.847 213.878H166.204V226.624V226.628H161.846V226.624V213.878H161.847ZM169.234 213.878H173.59V226.624V226.628H169.233V226.624V213.878H169.234ZM179.138 226.627H176.622V226.623V213.877H181.561L179.138 226.627ZM158.815 213.878V226.624V226.628H154.917V213.878H158.815ZM153.511 239.505C152.049 239.505 150.859 238.315 150.859 236.853C150.859 235.391 152.049 234.201 153.511 234.201C154.973 234.201 156.163 235.391 156.163 236.853C156.163 238.316 154.974 239.505 153.511 239.505ZM179.274 239.505C177.812 239.505 176.622 238.315 176.622 236.853C176.622 235.391 177.812 234.201 179.274 234.201C180.736 234.201 181.926 235.391 181.926 236.853C181.926 238.316 180.736 239.505 179.274 239.505Z" fill="#263238"/>
<path d="M186.251 220.5C192.37 220.5 197.331 215.54 197.331 209.421C197.331 203.302 192.37 198.342 186.251 198.342C180.132 198.342 175.172 203.302 175.172 209.421C175.172 215.54 180.132 220.5 186.251 220.5Z" fill="white" stroke="#263238" stroke-width="2" stroke-miterlimit="10"/>
<path d="M180.562 208.668L184.711 213.276L192.178 205.707" stroke="#263238" stroke-width="2" stroke-miterlimit="10" stroke-linecap="round" stroke-linejoin="round"/>
<path d="M91.5781 0H8.41204C3.7682 0 0 3.83215 0 8.56946V179.767C0 184.494 3.7682 188.336 8.41204 188.336H91.5781C96.2219 188.336 100 184.494 100 179.767V8.56946C100 3.83215 96.2219 0 91.5781 0ZM94.7363 174.474C94.7363 178.98 91.3617 182.625 87.1999 182.625H12.8001C8.62849 182.625 5.25383 178.98 5.25383 174.474V15.058C5.25383 5.87859 8.62849 5.43093 12.8001 5.43093H27.7056C28.5714 5.43093 29.2798 6.4148 29.2798 7.63479V8.16116C29.2798 11.0193 30.8442 11.0291 32.7627 11.0291H67.2275C69.1657 11.0291 70.7202 11.0193 70.7202 8.16116V7.63479C70.7202 6.4148 71.4187 5.43093 72.2993 5.43093H87.1999C91.3617 5.43093 94.7363 6.65093 94.7363 15.058V174.474Z" fill="#263238"/>
<path d="M94.7403 15.0568V174.472C94.7403 178.978 91.3656 182.624 87.2039 182.624H12.8041C8.63247 182.624 5.25781 178.978 5.25781 174.472V15.0568C5.25781 5.87735 8.63247 5.42969 12.8041 5.42969H27.7096C28.5754 5.42969 29.2838 6.41355 29.2838 7.63354V8.15991C29.2838 11.018 30.8481 11.0279 32.7667 11.0279H67.2314C69.1697 11.0279 70.7242 11.018 70.7242 8.15991V7.63354C70.7242 6.41355 71.4227 5.42969 72.3033 5.42969H87.2039C91.3656 5.42969 94.7403 6.64968 94.7403 15.0568Z" fill="white"/>
<path d="M94.7403 15.0568V33.0094H5.25781V15.0568C5.25781 5.87735 8.63247 5.42969 12.8041 5.42969H27.7096C28.5754 5.42969 29.2838 6.41355 29.2838 7.63354V8.15991C29.2838 11.018 30.8481 11.0279 32.7667 11.0279H67.2314C69.1697 11.0279 70.7242 11.018 70.7242 8.15991V7.63354C70.7242 6.41355 71.4227 5.42969 72.3033 5.42969H87.2039C91.3656 5.42969 94.7403 6.64968 94.7403 15.0568Z" fill="#57A1EC"/>
<path d="M25.1406 9.00952C25.0924 9.05724 25.0447 9.10496 24.9965 9.15267C24.9694 9.17973 24.9424 9.20728 24.9148 9.23483C24.5282 8.85948 24.0672 8.65926 23.5281 8.65926C22.9889 8.65926 22.5285 8.85899 22.1384 9.23679C22.1128 9.21023 22.0872 9.18268 22.0607 9.15562C22.0134 9.10791 21.9662 9.06019 21.9185 9.01296C21.9175 9.01198 21.9155 9.01149 21.9141 9.0105C21.9141 9.00952 21.9141 9.00804 21.9141 9.00706C21.9175 9.00411 21.9214 9.00165 21.9244 8.99821C21.9849 8.94458 22.0439 8.8885 22.1064 8.83685C22.2358 8.7301 22.3775 8.64205 22.5275 8.56826C22.7051 8.48118 22.891 8.41625 23.0858 8.38083C23.1778 8.36411 23.2718 8.35525 23.3648 8.34393C23.3962 8.34 23.6024 8.33951 23.6088 8.34C23.6722 8.34492 23.7357 8.34738 23.7991 8.35427C23.9748 8.37345 24.1455 8.41576 24.3112 8.47676C24.4313 8.52054 24.5469 8.57514 24.6576 8.6386C24.7746 8.706 24.8853 8.78225 24.9881 8.8703C25.0398 8.91458 25.0895 8.96131 25.1402 9.00706C25.1402 9.00706 25.1406 9.00805 25.1406 9.00952Z" fill="white"/>
<path d="M22.6028 9.68808C22.5265 9.61233 22.4522 9.53854 22.375 9.46229C22.6342 9.20796 22.9407 9.04611 23.3008 8.99741C23.839 8.92461 24.3014 9.08792 24.6935 9.45884C24.6162 9.53608 24.541 9.61036 24.4652 9.68612C24.2079 9.43622 23.8975 9.30142 23.5345 9.30142C23.1714 9.30192 22.862 9.43671 22.6028 9.68808Z" fill="white"/>
<path d="M24.2346 9.91239C24.1593 9.98717 24.0845 10.0624 24.0083 10.1387C23.8769 10.0113 23.718 9.94092 23.5311 9.94092C23.3447 9.94092 23.1863 10.0113 23.0539 10.1397C22.9782 10.0639 22.9029 9.98864 22.8281 9.91387C23.1882 9.53656 23.8361 9.50606 24.2346 9.91239Z" fill="white"/>
<path d="M23.7296 10.3472C23.7296 10.4604 23.6381 10.5519 23.525 10.5519C23.4118 10.5519 23.3203 10.4604 23.3203 10.3472C23.3203 10.2341 23.4118 10.1426 23.525 10.1426C23.6381 10.1431 23.7296 10.2346 23.7296 10.3472Z" fill="white"/>
<path d="M11.0938 9.44434C11.0938 9.11671 11.3594 8.85156 11.687 8.85156C12.0146 8.85156 12.2798 9.1172 12.2798 9.44434C12.2798 9.77196 12.0142 10.0371 11.687 10.0371C11.3599 10.0371 11.0938 9.77196 11.0938 9.44434Z" fill="white"/>
<path d="M12.9609 9.44434C12.9609 9.11671 13.2266 8.85156 13.5537 8.85156C13.8813 8.85156 14.1465 9.1172 14.1465 9.44434C14.1465 9.77196 13.8809 10.0371 13.5537 10.0371C13.2261 10.0376 12.9609 9.77196 12.9609 9.44434Z" fill="white"/>
<path d="M14.8281 9.44434C14.8281 9.11671 15.0938 8.85156 15.4214 8.85156C15.749 8.85156 16.0142 9.1172 16.0142 9.44434C16.0142 9.77196 15.7485 10.0371 15.4214 10.0371C15.0933 10.0376 14.8281 9.77196 14.8281 9.44434Z" fill="white"/>
<path d="M16.7031 9.44434C16.7031 9.11671 16.9688 8.85156 17.2959 8.85156C17.6235 8.85156 17.8887 9.1172 17.8887 9.44434C17.8887 9.77196 17.623 10.0371 17.2959 10.0371C16.9688 10.0376 16.7031 9.77196 16.7031 9.44434Z" fill="white"/>
<path d="M18.5625 9.44434C18.5625 9.11671 18.8281 8.85156 19.1553 8.85156C19.4829 8.85156 19.7481 9.1172 19.7481 9.44434C19.7481 9.77196 19.4824 10.0371 19.1553 10.0371C18.8281 10.0376 18.5625 9.77196 18.5625 9.44434Z" fill="white"/>
<path d="M88.0231 10.7422H83.1953V8.50586H88.0231V10.7422ZM83.4413 10.4962H87.7772V8.75183H83.4413V10.4962Z" fill="white"/>
<path d="M86.7057 8.88672H83.5938V10.3635H86.7057V8.88672Z" fill="white"/>
<path d="M88.4607 9.02734H88.0312V10.2237H88.4607V9.02734Z" fill="white"/>
<path d="M13.4093 27.9655L10.7656 25.4886L13.4093 23.0117L13.8195 23.4486L11.6427 25.4886L13.8195 27.5286L13.4093 27.9655Z" fill="white"/>
<path d="M86.5904 23.0117L89.2336 25.4886L86.5904 27.9655L86.1797 27.5286L88.357 25.4886L86.1797 23.4486L86.5904 23.0117Z" fill="white"/>
<path d="M44.9764 24.4716C45.2745 24.7894 45.4624 25.2124 45.4624 25.6891C45.4624 26.1658 45.2745 26.5938 44.9764 26.9067C44.6925 27.2195 44.269 27.4212 43.8267 27.4212C43.3648 27.4212 42.9413 27.219 42.6481 26.9067C42.35 26.5938 42.1719 26.1658 42.1719 25.6891C42.1719 25.2124 42.35 24.7894 42.6481 24.4716C42.9418 24.1538 43.3648 23.957 43.8267 23.957C44.269 23.957 44.6925 24.1538 44.9764 24.4716ZM44.9139 25.6886C44.9139 25.3615 44.784 25.0585 44.5868 24.8464C44.3846 24.63 44.1155 24.505 43.8267 24.505C43.5188 24.505 43.2492 24.63 43.047 24.8464C42.8448 25.0585 42.7199 25.3615 42.7199 25.6886C42.7199 26.0158 42.8448 26.3188 43.047 26.5259C43.2492 26.7424 43.5183 26.8722 43.8267 26.8722C44.1155 26.8722 44.3851 26.7424 44.5868 26.5259C44.784 26.3193 44.9139 26.0158 44.9139 25.6886Z" fill="white"/>
<path d="M48.6386 27.0196C48.6868 27.1593 48.6096 27.3084 48.4704 27.3566C48.4512 27.3615 48.4123 27.3708 48.3646 27.3708C48.3646 27.3708 48.3646 27.3708 48.3597 27.3708C48.3115 27.3708 48.2392 27.361 48.1723 27.3177C48.1098 27.2793 48.0567 27.2169 48.0183 27.1495C47.9509 27.0098 47.917 26.8366 47.917 26.5719C47.912 26.4804 47.8928 26.418 47.8594 26.3653C47.8304 26.3127 47.7728 26.264 47.7148 26.2256C47.6134 26.1582 47.4885 26.1199 47.4452 26.1105H46.8775V27.1544C46.8775 27.299 46.757 27.419 46.6084 27.419C46.4594 27.419 46.3438 27.2985 46.3438 27.1544V24.3154C46.3438 24.1664 46.4594 24.0508 46.6084 24.0508C46.6084 24.0508 46.6084 24.0508 46.6133 24.0508H47.4698C48.0424 24.0508 48.4994 24.5127 48.4994 25.0853C48.4994 25.4031 48.3553 25.682 48.1241 25.8744C48.1865 25.9226 48.2446 25.9801 48.2923 26.0525C48.3887 26.1922 48.4512 26.3702 48.4512 26.5719C48.4463 26.7166 48.461 26.8076 48.4704 26.8558C48.5471 26.8804 48.6101 26.9384 48.6386 27.0196ZM47.9652 25.0858C47.9652 24.8069 47.7438 24.5855 47.4698 24.5855H46.878V25.5768H47.4698C47.7438 25.5763 47.9652 25.3554 47.9652 25.0858Z" fill="white"/>
<path d="M49.4219 27.1544V24.3154C49.4219 24.1664 49.5375 24.0508 49.6865 24.0508H50.2542C51.1825 24.0508 51.9332 24.8064 51.9332 25.7302C51.9332 26.6634 51.1825 27.419 50.2542 27.419H49.6865C49.5375 27.4195 49.4219 27.299 49.4219 27.1544ZM49.9561 26.8853H50.2547C50.8893 26.8804 51.3999 26.3702 51.3999 25.7302C51.3999 25.1001 50.8898 24.585 50.2547 24.585H49.9561V26.8853Z" fill="white"/>
<path d="M52.6406 27.1544V24.3154C52.6406 24.1664 52.7557 24.0508 52.9048 24.0508H52.9102C52.9102 24.0508 52.9102 24.0508 52.92 24.0508H54.479C54.6182 24.0508 54.7431 24.1664 54.7431 24.3154C54.7431 24.4645 54.6182 24.585 54.479 24.585H53.1749V25.4656H54.296C54.4401 25.4656 54.5606 25.5905 54.5606 25.7302C54.5606 25.8793 54.4401 25.9998 54.296 25.9998H53.1749V26.8853H54.479C54.6182 26.8853 54.7431 27.0053 54.7431 27.1544C54.7431 27.299 54.6182 27.419 54.479 27.419H52.92C52.9102 27.419 52.9102 27.4141 52.9102 27.4141L52.9048 27.419C52.7557 27.4195 52.6406 27.299 52.6406 27.1544Z" fill="white"/>
<path d="M57.8115 27.0196C57.8597 27.1593 57.7825 27.3084 57.6427 27.3566C57.6236 27.3615 57.5852 27.3708 57.537 27.3708C57.537 27.3708 57.537 27.3708 57.5321 27.3708C57.4838 27.3708 57.412 27.361 57.3441 27.3177C57.2817 27.2793 57.229 27.2169 57.1902 27.1495C57.1228 27.0098 57.0893 26.8366 57.0893 26.5719C57.0844 26.4804 57.0647 26.418 57.0313 26.3653C57.0022 26.3127 56.9447 26.264 56.8871 26.2256C56.7863 26.1582 56.6609 26.1199 56.6176 26.1105H56.0499V27.1544C56.0499 27.299 55.9298 27.419 55.7803 27.419C55.6312 27.419 55.5156 27.2985 55.5156 27.1544V24.3154C55.5156 24.1664 55.6312 24.0508 55.7803 24.0508C55.7803 24.0508 55.7803 24.0508 55.7852 24.0508H56.6417C57.2143 24.0508 57.6713 24.5127 57.6713 25.0853C57.6713 25.4031 57.5271 25.682 57.2959 25.8744C57.3584 25.9226 57.4165 25.9801 57.4647 26.0525C57.5606 26.1922 57.6231 26.3702 57.6231 26.5719C57.6181 26.7166 57.6329 26.8076 57.6422 26.8558C57.7205 26.8804 57.7829 26.9384 57.8115 27.0196ZM57.138 25.0858C57.138 24.8069 56.9167 24.5855 56.6422 24.5855H56.0504V25.5768H56.6422C56.9167 25.5763 57.138 25.3554 57.138 25.0858Z" fill="white"/>
<path d="M54.7079 7.45979H45.307C44.9863 7.45979 44.7266 7.20005 44.7266 6.87931C44.7266 6.55857 44.9863 6.29883 45.307 6.29883H54.7079C55.0286 6.29883 55.2883 6.55857 55.2883 6.87931C55.2888 7.20005 55.0286 7.45979 54.7079 7.45979Z" fill="#263238"/>
<path d="M19.9262 98.2107L18.745 99.8296V101.385C18.745 101.564 18.6068 101.702 18.4282 101.702C18.2615 101.702 18.1114 101.564 18.1114 101.385V99.8296L16.9416 98.2107C16.8319 98.0725 16.8609 97.8767 17.0051 97.7729C17.1492 97.6691 17.345 97.6981 17.4429 97.8422L18.4282 99.1901L19.4136 97.8422C19.5233 97.6981 19.7191 97.6696 19.8573 97.7729C19.9955 97.8767 20.024 98.0725 19.9262 98.2107Z" fill="#263238"/>
<path d="M20.1709 101.284C19.923 101.031 19.7734 100.673 19.7734 100.27C19.7734 99.8784 19.9235 99.538 20.1709 99.262C20.4302 98.991 20.7642 98.8242 21.1622 98.8242C21.5424 98.8242 21.8883 98.9915 22.1244 99.262C22.3836 99.5385 22.5278 99.8784 22.5278 100.27C22.5278 100.673 22.3836 101.031 22.1244 101.284C21.8883 101.554 21.5424 101.722 21.1622 101.722C20.7647 101.722 20.4302 101.554 20.1709 101.284ZM20.4016 100.27C20.4016 100.518 20.4764 100.72 20.6092 100.881C20.7534 101.019 20.9437 101.094 21.1622 101.094C21.3639 101.094 21.5483 101.019 21.6925 100.881C21.8366 100.72 21.9173 100.518 21.9173 100.27C21.9173 100.033 21.8366 99.8263 21.6925 99.6703C21.5483 99.5434 21.3639 99.4514 21.1622 99.4514C20.9433 99.4514 20.7529 99.5434 20.6092 99.6703C20.4764 99.8258 20.4016 100.033 20.4016 100.27Z" fill="#263238"/>
<path d="M24.5577 101.705C23.901 101.705 23.3594 101.163 23.3594 100.506V99.1292C23.3594 98.9679 23.4976 98.8242 23.6644 98.8242C23.837 98.8242 23.9699 98.9684 23.9699 99.1292V100.506C23.9699 100.835 24.2291 101.094 24.5577 101.094C24.8917 101.094 25.1569 100.835 25.1628 100.506V99.1292C25.1628 98.9679 25.2897 98.8242 25.4624 98.8242C25.6237 98.8242 25.7733 98.9684 25.7733 99.1292V100.506C25.7733 101.163 25.2204 101.705 24.5577 101.705Z" fill="#263238"/>
<path d="M28.7202 99.1279C28.7202 99.2893 28.5879 99.4334 28.4147 99.4334C28.2819 99.4334 28.1668 99.4678 28.0689 99.5426C27.9592 99.612 27.8731 99.7099 27.8037 99.8196C27.6655 100.004 27.5961 100.222 27.5676 100.303V101.398C27.5676 101.565 27.4235 101.704 27.2508 101.704C27.084 101.704 26.9453 101.565 26.9453 101.398V99.1279C26.9453 98.9607 27.0835 98.8283 27.2508 98.8283C27.424 98.8283 27.5676 98.9612 27.5676 99.1279V99.1683C27.602 99.1279 27.6483 99.0817 27.6886 99.0531C27.8785 98.9262 28.1264 98.8229 28.4147 98.8283C28.5874 98.8283 28.7202 98.9612 28.7202 99.1279Z" fill="#263238"/>
<path d="M31.4756 101.284C31.2282 101.031 31.0781 100.673 31.0781 100.27C31.0781 99.8784 31.2282 99.538 31.4756 99.262C31.7349 98.991 32.0694 98.8242 32.4668 98.8242C32.8471 98.8242 33.1929 98.9915 33.4291 99.262C33.6883 99.5385 33.8325 99.8784 33.8325 100.27C33.8325 100.673 33.6883 101.031 33.4291 101.284C33.1929 101.554 32.8471 101.722 32.4668 101.722C32.0694 101.722 31.7353 101.554 31.4756 101.284ZM31.7063 100.27C31.7063 100.518 31.7811 100.72 31.9139 100.881C32.0581 101.019 32.2484 101.094 32.4668 101.094C32.6685 101.094 32.853 101.019 32.9972 100.881C33.1413 100.72 33.222 100.518 33.222 100.27C33.222 100.033 33.1413 99.8263 32.9972 99.6703C32.853 99.5434 32.6685 99.4514 32.4668 99.4514C32.2479 99.4514 32.0576 99.5434 31.9139 99.6703C31.7811 99.8258 31.7063 100.033 31.7063 100.27Z" fill="#263238"/>
<path d="M36.478 99.1279C36.478 99.2893 36.3457 99.4334 36.1725 99.4334C36.0397 99.4334 35.9246 99.4678 35.8267 99.5426C35.717 99.612 35.6309 99.7099 35.5616 99.8196C35.4233 100.004 35.3544 100.222 35.3254 100.303V101.398C35.3254 101.565 35.1813 101.704 35.0086 101.704C34.8414 101.704 34.7031 101.565 34.7031 101.398V99.1279C34.7031 98.9607 34.8414 98.8283 35.0086 98.8283C35.1818 98.8283 35.3254 98.9612 35.3254 99.1279V99.1683C35.3599 99.1279 35.4061 99.0817 35.4464 99.0531C35.6363 98.9262 35.8843 98.8229 36.1725 98.8283C36.3457 98.8283 36.478 98.9612 36.478 99.1279Z" fill="#263238"/>
<path d="M39.6907 101.393C39.6907 101.56 39.5525 101.704 39.3798 101.704C39.2244 101.704 39.1033 101.594 39.0743 101.456C38.8554 101.605 38.5789 101.704 38.2907 101.704C37.5129 101.704 36.8906 101.047 36.8906 100.269C36.8906 99.4792 37.5129 98.8225 38.2907 98.8225C38.573 98.8225 38.8495 98.9145 39.063 99.0646V97.9813C39.063 97.8141 39.2012 97.6699 39.3798 97.6699C39.5525 97.6699 39.6907 97.8141 39.6907 97.9813V100.262C39.6907 100.262 39.6907 100.262 39.6907 100.268V101.393ZM38.2907 99.4507C38.0831 99.4507 37.8932 99.5373 37.749 99.6868C37.6049 99.831 37.5183 100.038 37.5183 100.269C37.5183 100.488 37.6044 100.696 37.749 100.84C37.8932 100.989 38.0831 101.076 38.2907 101.076C38.5037 101.076 38.6881 100.99 38.8323 100.84C38.9764 100.696 39.063 100.488 39.063 100.269C39.063 100.039 38.9764 99.831 38.8323 99.6868C38.6881 99.5373 38.5042 99.4507 38.2907 99.4507Z" fill="#263238"/>
<path d="M40.5938 100.264C40.5997 99.4805 41.2101 98.8242 41.9997 98.8242C42.7489 98.8242 43.3422 99.3826 43.3879 100.161C43.3879 100.167 43.3879 100.178 43.3879 100.19C43.3879 100.201 43.3879 100.23 43.3825 100.241C43.3653 100.38 43.2443 100.472 43.0829 100.472H41.2505C41.2795 100.605 41.3425 100.754 41.4463 100.852C41.5673 100.99 41.7975 101.094 41.9992 101.111C42.2068 101.128 42.4542 101.076 42.5984 100.967C42.7194 100.84 42.9555 100.857 43.0308 100.95C43.1056 101.031 43.1631 101.203 43.0308 101.324C42.7484 101.583 42.4085 101.704 41.9992 101.704C41.2106 101.699 40.5997 101.048 40.5938 100.264ZM41.2219 99.9822H42.8527C42.7951 99.7515 42.5015 99.4116 42.0002 99.3712C41.5102 99.3944 41.2682 99.7456 41.2219 99.9822Z" fill="#263238"/>
<path d="M45.9624 99.1279C45.9624 99.2893 45.8296 99.4334 45.6569 99.4334C45.5246 99.4334 45.409 99.4678 45.3111 99.5426C45.2014 99.612 45.1153 99.7099 45.0459 99.8196C44.9077 100.004 44.8383 100.222 44.8098 100.303V101.398C44.8098 101.565 44.6657 101.704 44.493 101.704C44.3257 101.704 44.1875 101.565 44.1875 101.398V99.1279C44.1875 98.9607 44.3257 98.8283 44.493 98.8283C44.6657 98.8283 44.8098 98.9612 44.8098 99.1279V99.1683C44.8442 99.1279 44.8905 99.0817 44.9308 99.0531C45.1207 98.9262 45.3686 98.8229 45.6569 98.8283C45.8301 98.8283 45.9624 98.9612 45.9624 99.1279Z" fill="#263238"/>
<path d="M49.0754 98.1023C49.0754 98.275 48.9426 98.4191 48.764 98.4191C48.5909 98.4191 48.4531 98.275 48.4531 98.1023V97.9813C48.4531 97.8086 48.5914 97.6699 48.764 97.6699C48.9426 97.6699 49.0754 97.8082 49.0754 97.9813V98.1023ZM49.0754 99.1452V101.392C49.0754 101.565 48.9426 101.703 48.764 101.703C48.5909 101.703 48.4531 101.565 48.4531 101.392V99.1452C48.4531 98.9607 48.5914 98.8284 48.764 98.8284C48.9431 98.8284 49.0754 98.9612 49.0754 99.1452Z" fill="#263238"/>
<path d="M49.9427 100.881C50.0465 100.743 50.2482 100.725 50.3746 100.835C50.5246 100.962 50.7839 101.094 51.0082 101.089C51.1642 101.089 51.3078 101.036 51.4003 100.979C51.481 100.91 51.5036 100.852 51.5036 100.806C51.5036 100.777 51.4982 100.766 51.4869 100.749C51.481 100.731 51.4578 100.708 51.4116 100.68C51.3309 100.622 51.1583 100.559 50.9507 100.518H50.9452C50.7662 100.484 50.5935 100.438 50.4435 100.369C50.288 100.294 50.1493 100.19 50.046 100.034C49.9825 99.9306 49.9481 99.8041 49.9481 99.6713C49.9481 99.4067 50.0981 99.1819 50.288 99.0377C50.4897 98.8995 50.7318 98.8242 50.9969 98.8242C51.3949 98.8242 51.6768 99.0141 51.8612 99.141C51.9995 99.233 52.0398 99.4229 51.9532 99.567C51.8612 99.7053 51.6713 99.7456 51.5272 99.6477C51.3427 99.5267 51.1814 99.4347 50.9969 99.4347C50.8528 99.4347 50.7258 99.4805 50.6511 99.5385C50.5763 99.5907 50.5586 99.6423 50.5586 99.6708C50.5586 99.6945 50.5586 99.6999 50.5704 99.7171C50.5763 99.7284 50.5935 99.7515 50.6339 99.7746C50.7091 99.8263 50.8587 99.8784 51.054 99.9124L51.0599 99.9183H51.0658C51.2557 99.9527 51.4347 100.004 51.602 100.086C51.7574 100.154 51.9124 100.264 52.0113 100.425C52.0801 100.541 52.12 100.673 52.12 100.805C52.12 101.088 51.9645 101.324 51.7574 101.474C51.5498 101.618 51.2906 101.704 51.0082 101.704C50.5586 101.698 50.2133 101.49 49.983 101.306C49.8561 101.204 49.8389 101.008 49.9427 100.881Z" fill="#263238"/>
<path d="M54.4375 100.271C54.4375 99.4696 55.106 98.8301 55.901 98.8242C56.2468 98.8242 56.5695 98.9511 56.8175 99.141C56.9503 99.2448 56.9729 99.4401 56.8809 99.567C56.7653 99.7053 56.5818 99.7284 56.449 99.6246C56.2995 99.5154 56.1145 99.4401 55.9015 99.4401C55.4351 99.4401 55.0485 99.8263 55.0485 100.27C55.0485 100.713 55.4351 101.094 55.9015 101.094C56.1091 101.094 56.2995 101.019 56.449 100.91C56.5759 100.812 56.7658 100.834 56.8809 100.973C56.9729 101.099 56.9503 101.284 56.8175 101.399C56.5695 101.578 56.2468 101.705 55.901 101.705C55.106 101.705 54.4375 101.06 54.4375 100.271Z" fill="#263238"/>
<path d="M58.1011 101.284C57.8532 101.031 57.7031 100.673 57.7031 100.27C57.7031 99.8784 57.8532 99.538 58.1011 99.262C58.3604 98.991 58.6944 98.8242 59.0919 98.8242C59.4721 98.8242 59.818 98.9915 60.0546 99.262C60.3133 99.5385 60.4575 99.8784 60.4575 100.27C60.4575 100.673 60.3133 101.031 60.0546 101.284C59.818 101.554 59.4721 101.722 59.0919 101.722C58.6944 101.722 58.3604 101.554 58.1011 101.284ZM58.3318 100.27C58.3318 100.518 58.4066 100.72 58.5394 100.881C58.6831 101.019 58.8734 101.094 59.0923 101.094C59.294 101.094 59.479 101.019 59.6226 100.881C59.7673 100.72 59.848 100.518 59.848 100.27C59.848 100.033 59.7673 99.8263 59.6226 99.6703C59.479 99.5434 59.294 99.4514 59.0923 99.4514C58.8739 99.4514 58.6831 99.5434 58.5394 99.6703C58.4061 99.8258 58.3318 100.033 58.3318 100.27Z" fill="#263238"/>
<path d="M63.8484 100.023V101.399C63.8484 101.567 63.7161 101.705 63.5488 101.705C63.3875 101.705 63.2433 101.567 63.2433 101.399V100.023C63.2433 99.6999 62.9728 99.4401 62.6442 99.4401C62.3214 99.4401 62.0681 99.6994 62.0681 100.023V101.399C62.0681 101.417 62.0681 101.434 62.0563 101.457C62.0278 101.595 61.9004 101.705 61.7508 101.705C61.5781 101.705 61.4453 101.567 61.4453 101.399V100.023V99.1292C61.4453 98.962 61.5781 98.8242 61.7508 98.8242C61.8718 98.8242 61.981 98.8936 62.0332 99.0028C62.2058 98.8936 62.4193 98.8242 62.6442 98.8242C63.3127 98.8242 63.8484 99.3712 63.8484 100.023Z" fill="#263238"/>
<path d="M65.9267 98.6336V98.7143H66.0998C66.2725 98.7143 66.4166 98.8526 66.4166 99.0311C66.4166 99.2043 66.2725 99.3479 66.0998 99.3479H65.9267V101.382C65.9267 101.554 65.7889 101.698 65.6099 101.698C65.4313 101.698 65.2926 101.554 65.2926 101.382V99.3479H65.143C64.9645 99.3479 64.8203 99.2038 64.8203 99.0311C64.8203 98.8526 64.9645 98.7143 65.143 98.7143H65.2926V98.6336C65.2926 98.4201 65.3157 98.2362 65.4023 98.0689C65.483 97.8957 65.6438 97.7634 65.817 97.7118C65.9326 97.6773 66.0418 97.666 66.1628 97.666C66.3355 97.666 66.4796 97.8102 66.4796 97.9828C66.4796 98.1614 66.3355 98.3055 66.1628 98.3055C66.0875 98.3055 66.0359 98.3114 66.0128 98.3227C65.9896 98.3282 65.9842 98.3341 65.9783 98.34C65.9734 98.34 65.9267 98.4206 65.9267 98.6336Z" fill="#263238"/>
<path d="M67.6926 98.1023C67.6926 98.275 67.5598 98.4191 67.3817 98.4191C67.2085 98.4191 67.0703 98.275 67.0703 98.1023V97.9813C67.0703 97.8086 67.2085 97.6699 67.3817 97.6699C67.5598 97.6699 67.6926 97.8082 67.6926 97.9813V98.1023ZM67.6926 99.1452V101.392C67.6926 101.565 67.5598 101.703 67.3817 101.703C67.2085 101.703 67.0703 101.565 67.0703 101.392V99.1452C67.0703 98.9607 67.2085 98.8284 67.3817 98.8284C67.5598 98.8284 67.6926 98.9612 67.6926 99.1452Z" fill="#263238"/>
<path d="M70.4629 99.1279C70.4629 99.2893 70.3301 99.4334 70.1574 99.4334C70.0246 99.4334 69.9095 99.4678 69.8116 99.5426C69.7024 99.612 69.6153 99.7099 69.5464 99.8196C69.4082 100.004 69.3388 100.222 69.3103 100.303V101.398C69.3103 101.565 69.1657 101.704 68.993 101.704C68.8257 101.704 68.6875 101.565 68.6875 101.398V99.1279C68.6875 98.9607 68.8257 98.8283 68.993 98.8283C69.1657 98.8283 69.3103 98.9612 69.3103 99.1279V99.1683C69.3447 99.1279 69.3905 99.0817 69.4308 99.0531C69.6212 98.9262 69.8691 98.8229 70.1569 98.8283C70.3301 98.8283 70.4629 98.9612 70.4629 99.1279Z" fill="#263238"/>
<path d="M73.6272 100.017C73.6272 100.023 73.6272 100.028 73.6272 100.034V101.399C73.6272 101.567 73.489 101.705 73.3218 101.705C73.1604 101.705 73.0109 101.567 73.0109 101.399V100.034C73.0109 100.028 73.0109 100.023 73.0109 100.017C73.005 99.6999 72.7398 99.4406 72.4176 99.4406C72.1003 99.4406 71.8352 99.7058 71.8352 100.034V101.399C71.8352 101.411 71.8297 101.428 71.8297 101.44C71.8297 101.445 71.8297 101.457 71.8297 101.457C71.8238 101.468 71.8238 101.48 71.8125 101.491C71.8125 101.497 71.8125 101.509 71.8125 101.521C71.7609 101.624 71.6457 101.705 71.5242 101.705C71.5011 101.705 71.4839 101.699 71.4667 101.699C71.3289 101.665 71.2188 101.55 71.2188 101.399V100.034C71.2188 100.028 71.2188 100.028 71.2188 100.028V99.1351C71.2188 98.957 71.357 98.8242 71.5242 98.8242C71.6453 98.8242 71.7545 98.8877 71.8012 98.9969C71.9857 98.8872 72.1987 98.8242 72.4176 98.8242C72.7801 98.8242 73.1029 98.9738 73.3223 99.2217C73.5353 98.9738 73.8639 98.8242 74.2269 98.8242C74.8896 98.8242 75.4253 99.3658 75.4253 100.034V101.399C75.4253 101.567 75.2875 101.705 75.1203 101.705C74.953 101.705 74.8089 101.567 74.8089 101.399V100.034C74.8089 99.7053 74.5437 99.4406 74.2269 99.4406C73.8983 99.4401 73.6386 99.6999 73.6272 100.017Z" fill="#263238"/>
<path d="M76.5 100.264C76.5059 99.4805 77.1164 98.8242 77.9059 98.8242C78.6547 98.8242 79.2484 99.3826 79.2947 100.161C79.2947 100.167 79.2947 100.178 79.2947 100.19C79.2947 100.201 79.2947 100.23 79.2888 100.241C79.272 100.38 79.151 100.472 78.9897 100.472H77.1572C77.1862 100.605 77.2497 100.754 77.3535 100.852C77.4745 100.99 77.7047 101.094 77.9064 101.111C78.114 101.128 78.3615 101.076 78.5056 100.967C78.6266 100.84 78.8632 100.857 78.9375 100.95C79.0128 101.031 79.0703 101.203 78.9375 101.324C78.6551 101.583 78.3152 101.704 77.9064 101.704C77.1164 101.699 76.5059 101.048 76.5 100.264ZM77.1282 99.9822H78.759C78.7014 99.7515 78.4072 99.4116 77.9059 99.3712C77.4165 99.3944 77.174 99.7456 77.1282 99.9822Z" fill="#263238"/>
<path d="M82.8162 101.393C82.8162 101.56 82.678 101.704 82.5048 101.704C82.3494 101.704 82.2283 101.594 82.1993 101.456C81.9809 101.605 81.7039 101.704 81.4157 101.704C80.6379 101.704 80.0156 101.047 80.0156 100.269C80.0156 99.4792 80.6379 98.8225 81.4157 98.8225C81.698 98.8225 81.975 98.9145 82.188 99.0646V97.9813C82.188 97.8141 82.3262 97.6699 82.5048 97.6699C82.678 97.6699 82.8162 97.8141 82.8162 97.9813V100.262C82.8162 100.262 82.8162 100.262 82.8162 100.268V101.393ZM81.4157 99.4507C81.2081 99.4507 81.0182 99.5373 80.874 99.6868C80.7299 99.831 80.6438 100.038 80.6438 100.269C80.6438 100.488 80.7299 100.696 80.874 100.84C81.0182 100.989 81.2081 101.076 81.4157 101.076C81.6292 101.076 81.8136 100.99 81.9578 100.84C82.1019 100.696 82.188 100.488 82.188 100.269C82.188 100.039 82.1014 99.831 81.9578 99.6868C81.8136 99.5373 81.6292 99.4507 81.4157 99.4507Z" fill="#263238"/>
<path d="M36.0882 90.6085H34.8726C34.7973 90.6085 34.7344 90.5451 34.7344 90.4644C34.7344 90.3891 34.7978 90.3262 34.8726 90.3262H37.5807C37.6555 90.3262 37.7189 90.3896 37.7189 90.4644C37.7189 90.5451 37.6555 90.6085 37.5807 90.6085H36.3646V94.2213C36.3646 94.2966 36.3012 94.3595 36.2264 94.3595C36.1516 94.3595 36.0882 94.2961 36.0882 94.2213V90.6085Z" fill="#263238"/>
<path d="M40.676 92.6486C40.676 92.1532 40.2727 91.8187 39.7773 91.8187C39.2873 91.8187 38.8844 92.1532 38.8844 92.6486V94.2213V94.2385C38.8844 94.2498 38.8785 94.2557 38.8785 94.2616C38.8731 94.2734 38.8731 94.2788 38.8672 94.2847C38.85 94.3192 38.8215 94.3423 38.7806 94.3536C38.7806 94.3536 38.7747 94.3595 38.7693 94.3595H38.7575H38.7403C38.6999 94.3595 38.6596 94.3423 38.6306 94.3133C38.6193 94.2961 38.6134 94.2843 38.6075 94.267C38.6016 94.2498 38.6016 94.238 38.6016 94.2208V92.6481V92.6019V90.4644C38.6016 90.3891 38.665 90.3262 38.7398 90.3262C38.8205 90.3262 38.8839 90.3896 38.8839 90.4644V91.951C39.0974 91.6972 39.4196 91.5363 39.7768 91.5363C40.4281 91.5363 40.9579 91.9973 40.9579 92.6486V94.2213C40.9579 94.2966 40.8945 94.3595 40.8138 94.3595C40.739 94.3595 40.6756 94.2961 40.6756 94.2213V92.6486H40.676Z" fill="#263238"/>
<path d="M44.7357 91.6758V94.2226C44.7357 94.2978 44.6722 94.3608 44.5974 94.3608C44.5227 94.3608 44.4592 94.2973 44.4592 94.2226V93.802C44.2172 94.1365 43.831 94.3608 43.3991 94.3608C42.6558 94.3608 42.0625 93.7213 42.0625 92.949C42.0625 92.1771 42.6558 91.5371 43.3991 91.5371C43.831 91.5371 44.2172 91.756 44.4592 92.09V91.6753C44.4592 91.5947 44.5227 91.5371 44.5974 91.5371C44.6722 91.5376 44.7357 91.5952 44.7357 91.6758ZM44.4592 92.949C44.4592 92.3153 43.981 91.8082 43.3991 91.8082C42.823 91.8082 42.339 92.3153 42.339 92.949C42.339 93.5826 42.823 94.0843 43.3991 94.0843C43.981 94.0843 44.4592 93.5831 44.4592 92.949Z" fill="#263238"/>
<path d="M47.8919 92.6897C47.8919 92.2115 47.5058 91.8194 47.0217 91.8194C46.5435 91.8194 46.1574 92.211 46.1461 92.6897V94.222V94.2452C46.1402 94.2683 46.1347 94.2914 46.117 94.3086C46.0939 94.3431 46.0536 94.3603 46.0132 94.3603H45.9783C45.9385 94.349 45.9035 94.3199 45.8863 94.2855C45.8809 94.2796 45.8809 94.2742 45.8809 94.2683C45.8809 94.2624 45.875 94.257 45.875 94.257V94.222V92.6897V92.6434V91.6812C45.875 91.6064 45.9326 91.543 46.0132 91.543C46.088 91.543 46.1456 91.6064 46.1456 91.6812V91.9523C46.3527 91.7048 46.67 91.543 47.0212 91.543C47.6548 91.543 48.1679 92.0615 48.1679 92.6897V94.222C48.1679 94.3027 48.1044 94.3603 48.0297 94.3603C47.9544 94.3603 47.8914 94.3027 47.8914 94.222V92.6897H47.8919Z" fill="#263238"/>
<path d="M49.4062 90.4644C49.4062 90.3891 49.4697 90.3262 49.5445 90.3262C49.6252 90.3262 49.6886 90.3896 49.6886 90.4644V93.1784L51.3597 91.5132C51.4168 91.4556 51.4975 91.4556 51.5555 91.5132C51.6131 91.5649 51.6131 91.6514 51.5555 91.709L50.4664 92.7981L51.5614 94.1293C51.6131 94.1928 51.6076 94.2734 51.5496 94.331C51.5211 94.3541 51.4861 94.36 51.4571 94.36C51.4168 94.36 51.3705 94.3487 51.3479 94.3084L50.2647 93.0003L49.6886 93.5769V94.2218C49.6886 94.297 49.6252 94.36 49.5445 94.36C49.4692 94.36 49.4062 94.2966 49.4062 94.2218V90.4644Z" fill="#263238"/>
<path d="M54.1406 91.6694C54.1406 91.5947 54.2041 91.5371 54.273 91.5371C54.3536 91.5371 54.4176 91.5947 54.4176 91.6694V93.2023C54.4176 93.6864 54.8033 94.0725 55.2819 94.0725C55.766 94.0725 56.1516 93.6864 56.1576 93.2023V91.6694C56.1576 91.6463 56.1635 91.6178 56.1812 91.6006C56.1812 91.5947 56.1866 91.5888 56.1866 91.5834C56.1925 91.5834 56.1925 91.5774 56.1979 91.5774C56.2097 91.5602 56.2328 91.5489 56.25 91.543H56.2618C56.2677 91.543 56.2732 91.5371 56.2786 91.5371H56.2963H56.313C56.3366 91.543 56.3588 91.5543 56.3824 91.5661C56.3937 91.5775 56.4109 91.5952 56.4168 91.6124C56.4286 91.6296 56.434 91.6527 56.434 91.6699V93.2028V93.2544V94.136C56.434 94.8734 55.8348 95.4613 55.0915 95.4613C54.8839 95.4613 54.6886 95.4096 54.5096 95.3289C54.4461 95.2886 54.4176 95.2079 54.4525 95.1445C54.4869 95.0756 54.5612 95.0584 54.6306 95.0756C54.7688 95.1445 54.9297 95.1848 55.0915 95.1848C55.6794 95.1848 56.1516 94.7179 56.1576 94.136V93.9515C55.9445 94.1935 55.6336 94.3549 55.2819 94.3549C54.6537 94.349 54.1411 93.8364 54.1411 93.2028V91.6694H54.1406Z" fill="#263238"/>
<path d="M58.7897 91.5371C59.533 91.5371 60.1263 92.1825 60.1263 92.949C60.1263 93.7154 59.533 94.3608 58.7897 94.3608C58.0523 94.3608 57.4531 93.7154 57.4531 92.949C57.4531 92.1825 58.0523 91.5371 58.7897 91.5371ZM58.7897 94.0838C59.3658 94.0838 59.8498 93.5767 59.8498 92.9485C59.8498 92.3203 59.3663 91.8077 58.7897 91.8077C58.2137 91.8077 57.7296 92.3203 57.7296 92.9485C57.7296 93.5767 58.2137 94.0838 58.7897 94.0838Z" fill="#263238"/>
<path d="M61.0469 91.6695C61.0469 91.5888 61.1098 91.5312 61.1846 91.5312C61.2599 91.5312 61.3229 91.5888 61.3229 91.6695V93.2082C61.3229 93.6923 61.709 94.078 62.1872 94.0839C62.6712 94.078 63.0633 93.6923 63.0633 93.2082V91.6695C63.0633 91.5888 63.1322 91.5312 63.2015 91.5312C63.2817 91.5312 63.3457 91.5888 63.3457 91.6695V93.2082C63.3457 93.8419 62.8331 94.3603 62.1872 94.3603C61.5536 94.3603 61.0469 93.8419 61.0469 93.2082V91.6695Z" fill="#263238"/>
<path d="M64.625 90.4644C64.625 90.3891 64.6885 90.3262 64.7632 90.3262C64.8439 90.3262 64.9074 90.3896 64.9074 90.4644V93.357C64.9074 93.4376 64.8439 93.5011 64.7632 93.5011C64.688 93.5011 64.625 93.4376 64.625 93.357V90.4644ZM64.625 94.0831C64.625 94.0083 64.6885 93.9448 64.7632 93.9448C64.8439 93.9448 64.9074 94.0083 64.9074 94.0831V94.2213C64.9074 94.2966 64.8439 94.3595 64.7632 94.3595C64.688 94.3595 64.625 94.2961 64.625 94.2213V94.0831Z" fill="#263238"/>
<path d="M48.8912 76.8407L44.7344 72.6332L46.131 71.2533L48.5592 73.711L53.6039 65.8027L55.2593 66.8579L48.8912 76.8407Z" fill="#57A1EC"/>
<path d="M49.9991 82.1877C44.0074 82.1877 39.1328 77.3131 39.1328 71.3214C39.1328 65.3296 44.0074 60.4551 49.9991 60.4551C55.9908 60.4551 60.8654 65.3296 60.8654 71.3214C60.8654 77.3131 55.9908 82.1877 49.9991 82.1877ZM49.9991 61.9304C44.821 61.9304 40.6086 66.1428 40.6086 71.3209C40.6086 76.499 44.8215 80.7114 49.9991 80.7114C55.1767 80.7114 59.3896 76.4985 59.3896 71.3209C59.3896 66.1433 55.1772 61.9304 49.9991 61.9304Z" fill="#57A1EC"/>
<path d="M36.3369 71.0723H33.1094V71.5642H36.3369V71.0723Z" fill="#57A1EC"/>
<path d="M35.215 64.2244L34.8672 64.5723L37.1494 66.8545L37.4972 66.5066L35.215 64.2244Z" fill="#57A1EC"/>
<path d="M37.1494 75.6729L34.8672 77.9551L35.215 78.3029L37.4972 76.0207L37.1494 75.6729Z" fill="#57A1EC"/>
<path d="M66.8838 71.0781H63.6562V71.5701H66.8838V71.0781Z" fill="#57A1EC"/>
<path d="M64.7744 64.2334L62.4922 66.5156L62.84 66.8635L65.1222 64.5813L64.7744 64.2334Z" fill="#57A1EC"/>
<path d="M62.84 75.6678L62.4922 76.0156L64.7741 78.2975L65.1219 77.9496L62.84 75.6678Z" fill="#57A1EC"/>
<path d="M64.6807 121.176H35.3281V131.039H64.6807V121.176Z" fill="#57A1EC"/>
<path d="M42.2969 127.864V124.464C42.2969 124.285 42.4351 124.146 42.6137 124.146H43.2935C44.4053 124.146 45.3045 125.051 45.3045 126.157C45.3045 127.276 44.4058 128.18 43.2935 128.18H42.6137C42.4351 128.18 42.2969 128.036 42.2969 127.864ZM42.9364 127.541H43.2935C44.0541 127.535 44.665 126.924 44.665 126.157C44.665 125.402 44.0541 124.786 43.2935 124.786H42.9364V127.541Z" fill="white"/>
<path d="M49.5313 124.65C49.8884 125.029 50.1132 125.537 50.1132 126.107C50.1132 126.678 49.8884 127.19 49.5313 127.565C49.1914 127.939 48.6842 128.181 48.1544 128.181C47.6014 128.181 47.0942 127.939 46.7425 127.565C46.3854 127.19 46.1719 126.678 46.1719 126.107C46.1719 125.537 46.3849 125.029 46.7425 124.65C47.0938 124.269 47.6009 124.033 48.1544 124.033C48.6842 124.033 49.1914 124.269 49.5313 124.65ZM49.4565 126.107C49.4565 125.716 49.3011 125.352 49.0644 125.099C48.8224 124.84 48.4997 124.69 48.1544 124.69C47.7854 124.69 47.4627 124.839 47.2207 125.099C46.9786 125.353 46.8291 125.716 46.8291 126.107C46.8291 126.499 46.9791 126.862 47.2207 127.11C47.4627 127.369 47.7854 127.524 48.1544 127.524C48.4997 127.524 48.8229 127.369 49.0644 127.11C49.3011 126.862 49.4565 126.499 49.4565 126.107Z" fill="white"/>
<path d="M51.7376 127.866C51.7376 128.039 51.5935 128.183 51.4267 128.183C51.2481 128.183 51.1099 128.039 51.1099 127.866V124.518C51.1099 124.518 51.1099 124.518 51.1099 124.512C51.104 124.414 51.1502 124.311 51.2368 124.247C51.3809 124.149 51.5767 124.178 51.6746 124.316L53.5356 126.892V124.518C53.5356 124.35 53.6738 124.207 53.8465 124.207C54.0197 124.207 54.1638 124.351 54.1638 124.518V127.866C54.1638 128.038 54.0197 128.183 53.8465 128.183C53.7545 128.183 53.6679 128.136 53.6104 128.067C53.5986 128.056 53.5868 128.044 53.5814 128.033L51.7376 125.474V127.866Z" fill="white"/>
<path d="M55.1719 127.864V124.464C55.1719 124.285 55.3101 124.146 55.4892 124.146H55.4951C55.4951 124.146 55.4951 124.146 55.5069 124.146H57.3738C57.541 124.146 57.6906 124.285 57.6906 124.464C57.6906 124.642 57.541 124.786 57.3738 124.786H55.8119V125.841H57.1544C57.327 125.841 57.4712 125.99 57.4712 126.157C57.4712 126.336 57.327 126.48 57.1544 126.48H55.8119V127.54H57.3738C57.541 127.54 57.6906 127.684 57.6906 127.863C57.6906 128.036 57.541 128.18 57.3738 128.18H55.5069C55.4951 128.18 55.4951 128.174 55.4951 128.174L55.4892 128.18C55.3101 128.18 55.1719 128.036 55.1719 127.864Z" fill="white"/>
<path d="M22.8643 107.637L22.1146 106.613C22.0925 106.578 22.0989 106.527 22.1309 106.504C22.1658 106.476 22.2169 106.482 22.2391 106.517L22.9381 107.477L23.6401 106.517C23.6622 106.482 23.7129 106.476 23.7483 106.504C23.7833 106.527 23.7901 106.578 23.7646 106.613L23.0178 107.63V108.632C23.0178 108.674 22.9858 108.709 22.9411 108.709C22.8997 108.709 22.8648 108.674 22.8648 108.632V107.637H22.8643Z" fill="#C7C7C7"/>
<path d="M24.4591 107.146C24.8704 107.146 25.199 107.504 25.199 107.928C25.199 108.353 24.8704 108.71 24.4591 108.71C24.0508 108.71 23.7188 108.352 23.7188 107.928C23.7188 107.504 24.0508 107.146 24.4591 107.146ZM24.4591 108.556C24.7779 108.556 25.046 108.276 25.046 107.928C25.046 107.58 24.7779 107.297 24.4591 107.297C24.1403 107.297 23.8722 107.58 23.8722 107.928C23.8722 108.276 24.1403 108.556 24.4591 108.556Z" fill="#C7C7C7"/>
<path d="M25.7036 107.221C25.7036 107.177 25.7386 107.145 25.7804 107.145C25.8217 107.145 25.8566 107.177 25.8566 107.221V108.073C25.8566 108.341 26.0706 108.554 26.3353 108.557C26.6034 108.554 26.8203 108.341 26.8203 108.073V107.221C26.8203 107.177 26.8582 107.145 26.8966 107.145C26.9413 107.145 26.9763 107.177 26.9763 107.221V108.073C26.9763 108.424 26.6924 108.711 26.3348 108.711C25.984 108.711 25.7031 108.424 25.7031 108.073V107.221H25.7036Z" fill="#C7C7C7"/>
<path d="M29.1708 108.697C29.1551 108.69 29.1452 108.678 29.1393 108.662L28.5524 107.265C28.5367 107.226 28.5559 107.181 28.5908 107.166C28.6287 107.15 28.6769 107.169 28.6897 107.207L29.2097 108.439L29.5698 107.58C29.5825 107.551 29.6145 107.533 29.6431 107.533C29.675 107.533 29.707 107.551 29.7198 107.58L30.0799 108.439L30.5969 107.207C30.6127 107.169 30.6609 107.15 30.6958 107.166C30.7337 107.181 30.7529 107.226 30.7371 107.265L30.1532 108.655C30.1463 108.671 30.137 108.684 30.1242 108.694C30.1114 108.703 30.0986 108.709 30.0858 108.709H30.0794H30.0696C30.044 108.706 30.0154 108.687 30.009 108.661L30.0056 108.658L29.6421 107.793L29.282 108.655C29.282 108.655 29.2785 108.658 29.2785 108.661C29.2687 108.69 29.2372 108.709 29.2116 108.709C29.2018 108.709 29.1924 108.706 29.1826 108.703C29.1777 108.703 29.1742 108.7 29.1708 108.697Z" fill="#C7C7C7"/>
<path d="M31.1953 106.713C31.1953 106.672 31.2307 106.637 31.272 106.637C31.3168 106.637 31.3517 106.672 31.3517 106.713V106.786C31.3517 106.831 31.3168 106.869 31.272 106.869C31.2307 106.869 31.1953 106.831 31.1953 106.786V106.713ZM31.1953 107.223C31.1953 107.179 31.2307 107.147 31.272 107.147C31.3168 107.147 31.3517 107.179 31.3517 107.223V108.633C31.3517 108.675 31.3168 108.71 31.272 108.71C31.2307 108.71 31.1953 108.675 31.1953 108.633V107.223Z" fill="#C7C7C7"/>
<path d="M32.0469 106.553C32.0469 106.511 32.0818 106.477 32.1231 106.477C32.1679 106.477 32.2028 106.511 32.2028 106.553V108.633C32.2028 108.675 32.1679 108.709 32.1231 108.709C32.0818 108.709 32.0469 108.675 32.0469 108.633V106.553Z" fill="#C7C7C7"/>
<path d="M32.8438 106.553C32.8438 106.511 32.8787 106.477 32.92 106.477C32.9648 106.477 32.9997 106.511 32.9997 106.553V108.633C32.9997 108.675 32.9648 108.709 32.92 108.709C32.8787 108.709 32.8438 108.675 32.8438 108.633V106.553Z" fill="#C7C7C7"/>
<path d="M34.5703 107.962V107.931V107.899V106.553C34.5703 106.511 34.6052 106.477 34.6466 106.477C34.6913 106.477 34.7263 106.511 34.7263 106.553V107.453C34.8635 107.267 35.0804 107.146 35.3264 107.146C35.747 107.146 36.082 107.497 36.082 107.931C36.082 108.359 35.747 108.709 35.3264 108.709C35.0804 108.709 34.8635 108.591 34.7263 108.406V108.633C34.7263 108.675 34.6913 108.709 34.6466 108.709C34.6052 108.709 34.5703 108.675 34.5703 108.633V107.962ZM34.7263 107.931C34.7263 108.275 34.9978 108.553 35.3264 108.553C35.658 108.553 35.9261 108.276 35.9261 107.931C35.9261 107.583 35.658 107.302 35.3264 107.302C35.0042 107.302 34.7395 107.57 34.7263 107.906V107.931Z" fill="#C7C7C7"/>
<path d="M36.5625 107.932C36.5625 107.498 36.9009 107.146 37.3216 107.146C37.7235 107.146 38.0427 107.465 38.0747 107.874V107.877V107.887C38.0747 107.928 38.0398 107.957 37.998 107.957H36.716C36.7317 108.298 36.9998 108.557 37.3216 108.557C37.5291 108.557 37.7205 108.448 37.8258 108.273C37.8479 108.235 37.8961 108.228 37.9276 108.247C37.9625 108.273 37.9758 108.318 37.9532 108.356C37.8194 108.57 37.5867 108.71 37.3216 108.71C36.9009 108.71 36.5625 108.359 36.5625 107.932ZM36.7253 107.807H37.9084C37.8573 107.513 37.6088 107.3 37.3216 107.3C37.0284 107.3 36.7829 107.51 36.7253 107.807Z" fill="#C7C7C7"/>
<path d="M39.5786 107.227C39.5786 107.182 39.6135 107.15 39.6583 107.15C39.6967 107.15 39.7316 107.182 39.7316 107.227V107.571C39.738 107.559 39.7439 107.545 39.7537 107.533C39.8718 107.348 40.0789 107.15 40.379 107.15C40.4203 107.15 40.4552 107.182 40.4552 107.227C40.4552 107.268 40.4203 107.303 40.379 107.303C40.1748 107.303 40.0341 107.418 39.9259 107.559C39.8206 107.699 39.7596 107.858 39.7375 107.922C39.7311 107.935 39.7311 107.941 39.7311 107.948V108.634C39.7311 108.679 39.6962 108.71 39.6578 108.71C39.613 108.71 39.5781 108.679 39.5781 108.634L39.5786 107.227Z" fill="#C7C7C7"/>
<path d="M40.7031 107.932C40.7031 107.498 41.0416 107.146 41.4627 107.146C41.8646 107.146 42.1838 107.465 42.2153 107.874V107.877V107.887C42.2153 107.928 42.1804 107.957 42.1391 107.957H40.8566C40.8723 108.298 41.1404 108.557 41.4627 108.557C41.6703 108.557 41.8616 108.448 41.9669 108.273C41.9895 108.235 42.0367 108.228 42.0692 108.247C42.1041 108.273 42.1169 108.318 42.0948 108.356C41.961 108.57 41.7278 108.71 41.4632 108.71C41.0416 108.71 40.7031 108.359 40.7031 107.932ZM40.866 107.807H42.0495C41.9979 107.513 41.75 107.3 41.4627 107.3C41.1695 107.3 40.924 107.51 40.866 107.807Z" fill="#C7C7C7"/>
<path d="M42.6484 107.925C42.6484 107.491 43.0061 107.146 43.4527 107.146C43.6377 107.146 43.8128 107.21 43.9506 107.319C43.9821 107.341 43.9885 107.389 43.9604 107.424C43.9348 107.453 43.8901 107.462 43.8551 107.436C43.743 107.347 43.6028 107.296 43.4532 107.296C43.0897 107.296 42.8024 107.58 42.8024 107.924C42.8024 108.275 43.0897 108.556 43.4532 108.556C43.6033 108.556 43.7435 108.505 43.8551 108.419C43.8901 108.394 43.9348 108.403 43.9604 108.431C43.9889 108.466 43.9826 108.515 43.9442 108.544C43.8133 108.645 43.6382 108.709 43.4532 108.709C43.0056 108.71 42.6484 108.365 42.6484 107.925Z" fill="#C7C7C7"/>
<path d="M44.4219 107.932C44.4219 107.498 44.7603 107.146 45.1814 107.146C45.5833 107.146 45.9026 107.465 45.9341 107.874V107.877V107.887C45.9341 107.928 45.8992 107.957 45.8578 107.957H44.5754C44.5911 108.298 44.8592 108.557 45.1814 108.557C45.389 108.557 45.5804 108.448 45.6852 108.273C45.7078 108.235 45.7555 108.228 45.7875 108.247C45.8224 108.273 45.8352 108.318 45.8131 108.356C45.6793 108.57 45.4461 108.71 45.1814 108.71C44.7603 108.71 44.4219 108.359 44.4219 107.932ZM44.5847 107.807H45.7683C45.7171 107.513 45.4687 107.3 45.1814 107.3C44.8877 107.3 44.6423 107.51 44.5847 107.807Z" fill="#C7C7C7"/>
<path d="M46.4766 106.713C46.4766 106.672 46.5115 106.637 46.5528 106.637C46.5976 106.637 46.6325 106.672 46.6325 106.713V106.786C46.6325 106.831 46.5976 106.869 46.5528 106.869C46.5115 106.869 46.4766 106.831 46.4766 106.786V106.713ZM46.4766 107.223C46.4766 107.179 46.5115 107.147 46.5528 107.147C46.5976 107.147 46.6325 107.179 46.6325 107.223V108.633C46.6325 108.675 46.5976 108.71 46.5528 108.71C46.5115 108.71 46.4766 108.675 46.4766 108.633V107.223Z" fill="#C7C7C7"/>
<path d="M47.8758 108.697C47.866 108.688 47.8566 108.678 47.8502 108.662L47.2634 107.265C47.2476 107.226 47.2668 107.181 47.3017 107.166C47.3396 107.15 47.3878 107.169 47.4001 107.207L47.9206 108.439L48.4406 107.207C48.4534 107.169 48.5011 107.15 48.5394 107.166C48.5778 107.181 48.5936 107.226 48.5778 107.265L47.9944 108.649C47.9909 108.661 47.9846 108.674 47.9752 108.687C47.9624 108.703 47.9403 108.709 47.924 108.709C47.9142 108.709 47.9078 108.709 47.898 108.706C47.895 108.706 47.895 108.706 47.8916 108.703C47.8852 108.703 47.8817 108.7 47.8758 108.697Z" fill="#C7C7C7"/>
<path d="M49.2344 106.713C49.2344 106.672 49.2698 106.637 49.3111 106.637C49.3559 106.637 49.3908 106.672 49.3908 106.713V106.786C49.3908 106.831 49.3559 106.869 49.3111 106.869C49.2698 106.869 49.2344 106.831 49.2344 106.786V106.713ZM49.2344 107.223C49.2344 107.179 49.2698 107.147 49.3111 107.147C49.3559 107.147 49.3908 107.179 49.3908 107.223V108.633C49.3908 108.675 49.3559 108.71 49.3111 108.71C49.2698 108.71 49.2344 108.675 49.2344 108.633V107.223Z" fill="#C7C7C7"/>
<path d="M51.2417 107.785C51.2417 107.521 51.0282 107.304 50.7596 107.304C50.4949 107.304 50.2809 107.521 50.275 107.785V108.635V108.647C50.2716 108.66 50.2686 108.672 50.2593 108.682C50.2465 108.701 50.2244 108.711 50.2017 108.711H50.1826C50.1604 108.704 50.1412 108.689 50.1314 108.669C50.128 108.666 50.1279 108.663 50.1279 108.66C50.1279 108.656 50.125 108.653 50.125 108.653V108.634V107.785V107.759V107.227C50.125 107.185 50.1565 107.15 50.2012 107.15C50.2431 107.15 50.2745 107.185 50.2745 107.227V107.377C50.3892 107.24 50.5648 107.15 50.7591 107.15C51.1103 107.15 51.3942 107.437 51.3942 107.785V108.634C51.3942 108.679 51.3593 108.71 51.3174 108.71C51.2761 108.71 51.2412 108.679 51.2412 108.634L51.2417 107.785Z" fill="#C7C7C7"/>
<path d="M53.4465 108.585C53.4465 108.99 53.1178 109.319 52.7095 109.319C52.5949 109.319 52.4862 109.29 52.3844 109.246C52.3524 109.223 52.3327 109.179 52.3524 109.144C52.3716 109.102 52.4164 109.087 52.4547 109.109C52.5344 109.147 52.6141 109.166 52.71 109.166C53.0352 109.166 53.2935 108.908 53.2935 108.585V108.394C53.1626 108.582 52.9491 108.7 52.71 108.7C52.3017 108.7 51.9766 108.352 51.9766 107.922C51.9766 107.501 52.3017 107.146 52.71 107.146C52.9491 107.146 53.1631 107.267 53.2935 107.453V107.223C53.2935 107.181 53.3284 107.146 53.3732 107.146C53.4115 107.146 53.4465 107.181 53.4465 107.223V108.585ZM53.293 107.922C53.293 107.574 53.0318 107.299 52.7095 107.299C52.3908 107.299 52.1286 107.574 52.1286 107.922C52.1286 108.273 52.3903 108.55 52.7095 108.55C53.0318 108.55 53.293 108.273 53.293 107.922Z" fill="#C7C7C7"/>
<path d="M56.449 107.221V108.632C56.449 108.673 56.4141 108.708 56.3722 108.708C56.3309 108.708 56.296 108.673 56.296 108.632V108.398C56.1622 108.583 55.9482 108.708 55.7091 108.708C55.2974 108.708 54.9688 108.354 54.9688 107.926C54.9688 107.499 55.2974 107.145 55.7091 107.145C55.9482 107.145 56.1622 107.266 56.296 107.451V107.221C56.296 107.177 56.3309 107.145 56.3722 107.145C56.4141 107.145 56.449 107.177 56.449 107.221ZM56.296 107.927C56.296 107.576 56.0313 107.295 55.7091 107.295C55.3903 107.295 55.1222 107.576 55.1222 107.927C55.1222 108.278 55.3903 108.555 55.7091 108.555C56.0313 108.555 56.296 108.278 56.296 107.927Z" fill="#C7C7C7"/>
<path d="M57.9609 107.925C57.9609 107.491 58.3186 107.146 58.7648 107.146C58.9497 107.146 59.1253 107.21 59.2626 107.319C59.2946 107.341 59.301 107.389 59.2724 107.424C59.2469 107.453 59.2021 107.462 59.1672 107.436C59.0555 107.347 58.9148 107.296 58.7653 107.296C58.4017 107.296 58.1149 107.58 58.1149 107.924C58.1149 108.275 58.4017 108.556 58.7653 108.556C58.9153 108.556 59.056 108.505 59.1672 108.419C59.2021 108.394 59.2469 108.403 59.2724 108.431C59.3015 108.466 59.2951 108.515 59.2567 108.544C59.1258 108.645 58.9502 108.709 58.7653 108.709C58.3186 108.71 57.9609 108.365 57.9609 107.925Z" fill="#C7C7C7"/>
<path d="M60.5211 107.146C60.9329 107.146 61.2615 107.504 61.2615 107.928C61.2615 108.353 60.9329 108.71 60.5211 108.71C60.1128 108.71 59.7812 108.352 59.7812 107.928C59.7812 107.504 60.1128 107.146 60.5211 107.146ZM60.5211 108.556C60.8399 108.556 61.108 108.276 61.108 107.928C61.108 107.58 60.8399 107.297 60.5211 107.297C60.2023 107.297 59.9342 107.58 59.9342 107.928C59.9342 108.276 60.2023 108.556 60.5211 108.556Z" fill="#C7C7C7"/>
<path d="M62.9595 107.785C62.9595 107.521 62.7455 107.304 62.4779 107.304C62.2132 107.304 61.9992 107.521 61.9933 107.785V108.635V108.647C61.9899 108.66 61.9864 108.672 61.9771 108.682C61.9648 108.701 61.9421 108.711 61.92 108.711H61.9008C61.8787 108.704 61.8595 108.689 61.8501 108.669C61.8467 108.666 61.8467 108.663 61.8467 108.66C61.8467 108.656 61.8438 108.653 61.8438 108.653V108.634V107.785V107.759V107.227C61.8438 107.185 61.8752 107.15 61.92 107.15C61.9613 107.15 61.9933 107.185 61.9933 107.227V107.377C62.1079 107.24 62.2835 107.15 62.4779 107.15C62.8291 107.15 63.1129 107.437 63.1129 107.785V108.634C63.1129 108.679 63.078 108.71 63.0362 108.71C62.9949 108.71 62.96 108.679 62.96 108.634V107.785H62.9595Z" fill="#C7C7C7"/>
<path d="M64.4887 106.56C64.4887 106.602 64.4538 106.637 64.4124 106.637C64.3037 106.637 64.2462 106.659 64.2147 106.697C64.1798 106.735 64.1507 106.812 64.1507 106.956V107.121H64.3706C64.4154 107.121 64.4503 107.156 64.4503 107.198C64.4503 107.242 64.4154 107.277 64.3706 107.277H64.1507V108.637C64.1507 108.678 64.1158 108.713 64.0745 108.713C64.0297 108.713 63.9948 108.678 63.9948 108.637V107.277H63.7872C63.7459 107.277 63.7109 107.242 63.7109 107.198C63.7109 107.156 63.7459 107.121 63.7872 107.121H63.9948V106.956C63.9977 106.796 64.0233 106.678 64.0966 106.592C64.1734 106.509 64.2885 106.48 64.4129 106.48C64.4538 106.48 64.4887 106.515 64.4887 106.56Z" fill="#C7C7C7"/>
<path d="M64.9531 106.713C64.9531 106.672 64.9881 106.637 65.0299 106.637C65.0746 106.637 65.1096 106.672 65.1096 106.713V106.786C65.1096 106.831 65.0746 106.869 65.0299 106.869C64.9881 106.869 64.9531 106.831 64.9531 106.786V106.713ZM64.9531 107.223C64.9531 107.179 64.9881 107.147 65.0299 107.147C65.0746 107.147 65.1096 107.179 65.1096 107.223V108.633C65.1096 108.675 65.0746 108.71 65.0299 108.71C64.9881 108.71 64.9531 108.675 64.9531 108.633V107.223Z" fill="#C7C7C7"/>
<path d="M65.8438 107.227C65.8438 107.182 65.8787 107.15 65.9235 107.15C65.9613 107.15 65.9962 107.182 65.9962 107.227V107.571C66.0031 107.559 66.009 107.545 66.0189 107.533C66.137 107.348 66.3441 107.15 66.6441 107.15C66.6859 107.15 66.7209 107.182 66.7209 107.227C66.7209 107.268 66.6859 107.303 66.6441 107.303C66.44 107.303 66.2998 107.418 66.1911 107.559C66.0858 107.699 66.0253 107.858 66.0031 107.922C65.9963 107.935 65.9962 107.941 65.9962 107.948V108.634C65.9962 108.679 65.9613 108.71 65.9235 108.71C65.8787 108.71 65.8438 108.679 65.8438 108.634V107.227Z" fill="#C7C7C7"/>
<path d="M69.4873 107.785C69.4804 107.521 69.2704 107.301 69.0023 107.301C68.7376 107.301 68.5207 107.521 68.5207 107.785V108.638V108.647C68.5207 108.651 68.5172 108.654 68.5172 108.654V108.661C68.5108 108.68 68.4946 108.692 68.4789 108.702C68.4666 108.708 68.4533 108.712 68.441 108.712H68.4311H68.4243C68.4213 108.712 68.4179 108.708 68.4179 108.708C68.4115 108.708 68.4051 108.702 68.3987 108.699C68.3957 108.699 68.3923 108.696 68.3893 108.692L68.3795 108.682C68.3765 108.679 68.3765 108.676 68.3731 108.676C68.3731 108.672 68.3731 108.672 68.3696 108.669C68.3696 108.669 68.3696 108.666 68.3667 108.663C68.3667 108.66 68.3667 108.656 68.3632 108.653V108.643V108.637V107.784C68.3632 107.52 68.1493 107.3 67.8816 107.3C67.614 107.3 67.4001 107.52 67.4001 107.784V108.637C67.4001 108.662 67.3873 108.685 67.3651 108.697C67.3617 108.7 67.3523 108.707 67.3459 108.707C67.3425 108.71 67.3395 108.71 67.3331 108.71H67.3233H67.3135C67.2849 108.707 67.2598 108.681 67.25 108.653V108.637V107.785V107.759V107.223C67.25 107.182 67.2849 107.15 67.3228 107.15C67.3676 107.15 67.3996 107.182 67.3996 107.223V107.374C67.5142 107.236 67.6864 107.15 67.8812 107.15C68.1237 107.15 68.3313 107.285 68.44 107.482C68.5517 107.285 68.7617 107.15 69.0013 107.15C69.3525 107.15 69.6364 107.434 69.6364 107.785V108.637C69.6364 108.675 69.6044 108.71 69.5596 108.71C69.5183 108.71 69.4868 108.675 69.4868 108.637V107.785H69.4873Z" fill="#C7C7C7"/>
<path d="M71.5891 107.221V108.632C71.5891 108.673 71.5542 108.708 71.5124 108.708C71.4711 108.708 71.4361 108.673 71.4361 108.632V108.398C71.3023 108.583 71.0883 108.708 70.8493 108.708C70.438 108.708 70.1094 108.354 70.1094 107.926C70.1094 107.499 70.438 107.145 70.8493 107.145C71.0883 107.145 71.3023 107.266 71.4361 107.451V107.221C71.4361 107.177 71.4711 107.145 71.5124 107.145C71.5537 107.145 71.5891 107.177 71.5891 107.221ZM71.4356 107.927C71.4356 107.576 71.171 107.295 70.8488 107.295C70.53 107.295 70.2619 107.576 70.2619 107.927C70.2619 108.278 70.53 108.555 70.8488 108.555C71.171 108.555 71.4356 108.278 71.4356 107.927Z" fill="#C7C7C7"/>
<path d="M72.8021 107.224C72.8021 107.263 72.7638 107.301 72.7259 107.301H72.5247V108.44C72.5247 108.516 72.6014 108.554 72.6393 108.554C72.6777 108.554 72.719 108.596 72.719 108.634C72.719 108.672 72.6777 108.71 72.6393 108.71C72.4833 108.71 72.3648 108.596 72.3648 108.439V107.3H72.17C72.0937 107.3 72.0938 107.262 72.0938 107.224C72.0938 107.186 72.0937 107.147 72.17 107.147H72.3648V106.566C72.3648 106.529 72.4032 106.49 72.4415 106.49C72.4829 106.49 72.5242 106.529 72.5242 106.566V107.147H72.7254C72.7633 107.148 72.8021 107.186 72.8021 107.224Z" fill="#C7C7C7"/>
<path d="M73.5312 106.713C73.5312 106.672 73.5662 106.637 73.608 106.637C73.6527 106.637 73.6877 106.672 73.6877 106.713V106.786C73.6877 106.831 73.6527 106.869 73.608 106.869C73.5662 106.869 73.5312 106.831 73.5312 106.786V106.713ZM73.5312 107.223C73.5312 107.179 73.5662 107.147 73.608 107.147C73.6527 107.147 73.6877 107.179 73.6877 107.223V108.633C73.6877 108.675 73.6527 108.71 73.608 108.71C73.5662 108.71 73.5312 108.675 73.5312 108.633V107.223Z" fill="#C7C7C7"/>
<path d="M75.0992 107.146C75.511 107.146 75.8396 107.504 75.8396 107.928C75.8396 108.353 75.511 108.71 75.0992 108.71C74.6909 108.71 74.3594 108.352 74.3594 107.928C74.3594 107.504 74.6909 107.146 75.0992 107.146ZM75.0992 108.556C75.4185 108.556 75.6861 108.276 75.6861 107.928C75.6861 107.58 75.4185 107.297 75.0992 107.297C74.7805 107.297 74.5129 107.58 74.5129 107.928C74.5124 108.276 74.78 108.556 75.0992 108.556Z" fill="#C7C7C7"/>
<path d="M77.5376 107.785C77.5376 107.521 77.3236 107.304 77.056 107.304C76.7913 107.304 76.5773 107.521 76.5714 107.785V108.635V108.647C76.568 108.66 76.5645 108.672 76.5552 108.682C76.5429 108.701 76.5203 108.711 76.4981 108.711H76.4789C76.4568 108.704 76.4376 108.689 76.4283 108.669C76.4248 108.666 76.4248 108.663 76.4248 108.66C76.4248 108.656 76.4219 108.653 76.4219 108.653V108.634V107.785V107.759V107.227C76.4219 107.185 76.4538 107.15 76.4981 107.15C76.5394 107.15 76.5714 107.185 76.5714 107.227V107.377C76.686 107.24 76.8617 107.15 77.056 107.15C77.4072 107.15 77.6911 107.437 77.6911 107.785V108.634C77.6911 108.679 77.6556 108.71 77.6143 108.71C77.573 108.71 77.5381 108.679 77.5381 108.634L77.5376 107.785Z" fill="#C7C7C7"/>
<path d="M31.3906 111.76C31.3906 111.326 31.7291 110.975 32.1502 110.975C32.5521 110.975 32.8713 111.293 32.9028 111.702V111.705V111.715C32.9028 111.756 32.8679 111.785 32.8266 111.785H31.5441C31.5599 112.126 31.828 112.385 32.1502 112.385C32.3578 112.385 32.5491 112.276 32.6539 112.101C32.6765 112.063 32.7243 112.056 32.7562 112.076C32.7912 112.101 32.8039 112.146 32.7818 112.184C32.648 112.398 32.4148 112.538 32.1502 112.538C31.7291 112.538 31.3906 112.187 31.3906 111.76ZM31.5535 111.635H32.737C32.6859 111.342 32.4375 111.128 32.1502 111.128C31.8565 111.128 31.611 111.338 31.5535 111.635Z" fill="#C7C7C7"/>
<path d="M35.6753 111.614C35.6689 111.349 35.4584 111.129 35.1907 111.129C34.9256 111.129 34.7091 111.349 34.7091 111.614V112.465V112.475C34.7091 112.478 34.7057 112.481 34.7057 112.481V112.488C34.6993 112.507 34.6836 112.52 34.6673 112.53C34.655 112.536 34.6417 112.539 34.6294 112.539H34.6196H34.6132C34.6098 112.539 34.6063 112.536 34.6063 112.536C34.5999 112.536 34.594 112.53 34.5871 112.526C34.5842 112.526 34.5807 112.523 34.5778 112.52L34.568 112.51C34.5645 112.507 34.5645 112.504 34.5611 112.504C34.5611 112.5 34.5611 112.5 34.5581 112.497C34.5581 112.497 34.5581 112.494 34.5547 112.49C34.5547 112.487 34.5547 112.484 34.5512 112.48V112.471V112.464V111.613C34.5512 111.348 34.3377 111.128 34.0696 111.128C33.8015 111.128 33.5875 111.348 33.5875 111.613V112.464C33.5875 112.49 33.5747 112.512 33.5526 112.525C33.5492 112.528 33.5398 112.534 33.5334 112.534C33.53 112.538 33.527 112.538 33.5206 112.538H33.5113H33.5014C33.4724 112.535 33.4473 112.509 33.4375 112.48V112.465V111.613V111.588V111.051C33.4375 111.01 33.4724 110.979 33.5108 110.979C33.5556 110.979 33.587 111.01 33.587 111.051V111.202C33.7017 111.065 33.8743 110.979 34.0691 110.979C34.3112 110.979 34.5188 111.112 34.6275 111.31C34.7391 111.113 34.9492 110.979 35.1893 110.979C35.54 110.979 35.8239 111.262 35.8239 111.613V112.465C35.8239 112.503 35.7924 112.538 35.7476 112.538C35.7058 112.538 35.6743 112.503 35.6743 112.465V111.614H35.6753Z" fill="#C7C7C7"/>
<path d="M37.7927 111.051V112.462C37.7927 112.503 37.7578 112.538 37.716 112.538C37.6747 112.538 37.6397 112.503 37.6397 112.462V112.229C37.5054 112.414 37.2919 112.538 37.0529 112.538C36.6411 112.538 36.3125 112.184 36.3125 111.756C36.3125 111.329 36.6411 110.975 37.0529 110.975C37.2919 110.975 37.5059 111.096 37.6397 111.281V111.051C37.6397 111.007 37.6747 110.975 37.716 110.975C37.7578 110.975 37.7927 111.007 37.7927 111.051ZM37.6392 111.756C37.6392 111.406 37.3746 111.125 37.0524 111.125C36.7336 111.125 36.4655 111.406 36.4655 111.756C36.4655 112.108 36.7336 112.384 37.0524 112.384C37.3746 112.384 37.6392 112.108 37.6392 111.756Z" fill="#C7C7C7"/>
<path d="M38.4531 110.541C38.4531 110.5 38.4881 110.465 38.5294 110.465C38.5741 110.465 38.6091 110.5 38.6091 110.541V110.614C38.6091 110.659 38.5741 110.697 38.5294 110.697C38.4881 110.697 38.4531 110.659 38.4531 110.614V110.541ZM38.4531 111.052C38.4531 111.007 38.4881 110.975 38.5294 110.975C38.5741 110.975 38.6091 111.007 38.6091 111.052V112.462C38.6091 112.503 38.5741 112.538 38.5294 112.538C38.4881 112.538 38.4531 112.503 38.4531 112.462V111.052Z" fill="#C7C7C7"/>
<path d="M39.2969 110.381C39.2969 110.34 39.3318 110.305 39.3736 110.305C39.4184 110.305 39.4533 110.34 39.4533 110.381V112.461C39.4533 112.503 39.4184 112.538 39.3736 112.538C39.3318 112.538 39.2969 112.503 39.2969 112.461V110.381Z" fill="#C7C7C7"/>
<path d="M41.5536 112.525C41.5379 112.518 41.528 112.506 41.5221 112.49L40.9353 111.093C40.9195 111.054 40.9387 111.01 40.9736 110.994C41.0115 110.978 41.0597 110.997 41.0725 111.035L41.5925 112.267L41.9526 111.408C41.9654 111.379 41.9973 111.361 42.0264 111.361C42.0583 111.361 42.0903 111.379 42.1031 111.408L42.4632 112.267L42.9802 111.035C42.996 110.997 43.0442 110.978 43.0791 110.994C43.117 111.01 43.1362 111.054 43.1204 111.093L42.5365 112.483C42.5296 112.499 42.5203 112.512 42.5075 112.522C42.4947 112.532 42.4819 112.537 42.4691 112.537H42.4627H42.4529C42.4273 112.534 42.3987 112.515 42.3924 112.489L42.3889 112.486L42.0254 111.622L41.6653 112.483C41.6653 112.483 41.6618 112.486 41.6618 112.489C41.652 112.518 41.6205 112.537 41.5949 112.537C41.5851 112.537 41.5757 112.534 41.5659 112.531C41.5605 112.531 41.557 112.528 41.5536 112.525Z" fill="#C7C7C7"/>
<path d="M43.5781 110.541C43.5781 110.5 43.6135 110.465 43.6549 110.465C43.6996 110.465 43.7346 110.5 43.7346 110.541V110.614C43.7346 110.659 43.6996 110.697 43.6549 110.697C43.6135 110.697 43.5781 110.659 43.5781 110.614V110.541ZM43.5781 111.052C43.5781 111.007 43.6135 110.975 43.6549 110.975C43.6996 110.975 43.7346 111.007 43.7346 111.052V112.462C43.7346 112.503 43.6996 112.538 43.6549 112.538C43.6135 112.538 43.5781 112.503 43.5781 112.462V111.052Z" fill="#C7C7C7"/>
<path d="M45.0204 111.052C45.0204 111.091 44.982 111.129 44.9437 111.129H44.7429V112.268C44.7429 112.344 44.8197 112.383 44.8576 112.383C44.8959 112.383 44.9373 112.424 44.9373 112.462C44.9373 112.5 44.8959 112.538 44.8576 112.538C44.7016 112.538 44.5831 112.424 44.5831 112.267V111.129H44.3887C44.3125 111.129 44.3125 111.09 44.3125 111.052C44.3125 111.014 44.3125 110.976 44.3887 110.976H44.5831V110.395C44.5831 110.357 44.6214 110.318 44.6593 110.318C44.7011 110.318 44.7425 110.357 44.7425 110.395V110.976H44.9432C44.982 110.976 45.0204 111.014 45.0204 111.052Z" fill="#C7C7C7"/>
<path d="M46.8367 111.591C46.8367 111.316 46.6138 111.131 46.3393 111.131C46.0678 111.131 45.8444 111.316 45.8444 111.591V112.462V112.472C45.8444 112.478 45.8415 112.481 45.8415 112.484C45.838 112.49 45.838 112.494 45.8346 112.497C45.8247 112.516 45.809 112.528 45.7869 112.535C45.7869 112.535 45.7834 112.538 45.78 112.538H45.7736H45.7637C45.7416 112.538 45.719 112.528 45.7032 112.512C45.6968 112.503 45.6934 112.497 45.6904 112.487C45.6875 112.477 45.6875 112.471 45.6875 112.461V111.59V111.565V110.381C45.6875 110.34 45.7224 110.305 45.7637 110.305C45.8085 110.305 45.8434 110.34 45.8434 110.381V111.204C45.9615 111.064 46.1406 110.974 46.3383 110.974C46.6984 110.974 46.9921 111.23 46.9921 111.59V112.461C46.9921 112.503 46.9572 112.538 46.9124 112.538C46.8706 112.538 46.8357 112.503 46.8357 112.461V111.591H46.8367Z" fill="#C7C7C7"/>
<path d="M49.2716 110.975C49.6829 110.975 50.0115 111.332 50.0115 111.756C50.0115 112.18 49.6829 112.538 49.2716 112.538C48.8633 112.538 48.5312 112.18 48.5312 111.756C48.5312 111.332 48.8633 110.975 49.2716 110.975ZM49.2716 112.384C49.5904 112.384 49.8585 112.104 49.8585 111.756C49.8585 111.409 49.5904 111.125 49.2716 111.125C48.9528 111.125 48.6847 111.409 48.6847 111.756C48.6842 112.104 48.9523 112.384 49.2716 112.384Z" fill="#C7C7C7"/>
<path d="M50.5317 111.055C50.5317 111.01 50.5667 110.979 50.6114 110.979C50.6498 110.979 50.6847 111.01 50.6847 111.055V111.399C50.6911 111.387 50.6975 111.374 50.7074 111.361C50.8249 111.176 51.0325 110.979 51.3321 110.979C51.3734 110.979 51.4084 111.01 51.4084 111.055C51.4084 111.096 51.3734 111.131 51.3321 111.131C51.128 111.131 50.9878 111.246 50.879 111.387C50.7738 111.527 50.7133 111.686 50.6906 111.75C50.6842 111.763 50.6842 111.77 50.6842 111.776V112.462C50.6842 112.507 50.6493 112.538 50.6109 112.538C50.5662 112.538 50.5312 112.507 50.5312 112.462V111.055H50.5317Z" fill="#C7C7C7"/>
<path d="M53.098 112.235C52.9612 112.42 52.7438 112.538 52.4983 112.538C52.0767 112.538 51.7422 112.187 51.7422 111.759C51.7422 111.325 52.0772 110.974 52.4983 110.974C52.7438 110.974 52.9607 111.095 53.098 111.281V110.381C53.098 110.34 53.1329 110.305 53.1776 110.305C53.2195 110.305 53.2544 110.34 53.2544 110.381V111.727V111.759V112.461C53.2544 112.502 53.2195 112.537 53.1776 112.537C53.1329 112.537 53.098 112.502 53.098 112.461V112.235ZM53.098 111.785V111.734C53.0857 111.398 52.821 111.13 52.4983 111.13C52.1697 111.13 51.8986 111.411 51.8986 111.759C51.8986 112.103 52.1697 112.381 52.4983 112.381C52.8205 112.382 53.0852 112.116 53.098 111.785Z" fill="#C7C7C7"/>
<path d="M53.7969 111.76C53.7969 111.326 54.1353 110.975 54.5559 110.975C54.9578 110.975 55.2771 111.293 55.3091 111.702V111.705V111.715C55.3091 111.756 55.2741 111.785 55.2323 111.785H53.9499C53.9656 112.126 54.2337 112.385 54.5559 112.385C54.7635 112.385 54.9544 112.276 55.0602 112.101C55.0823 112.063 55.1305 112.056 55.162 112.076C55.1969 112.101 55.2102 112.146 55.1876 112.184C55.0538 112.398 54.8211 112.538 54.5559 112.538C54.1348 112.538 53.7969 112.187 53.7969 111.76ZM53.9597 111.635H55.1428C55.0916 111.342 54.8432 111.128 54.5559 111.128C54.2622 111.128 54.0168 111.338 53.9597 111.635Z" fill="#C7C7C7"/>
<path d="M55.7812 111.055C55.7812 111.01 55.8162 110.979 55.861 110.979C55.8993 110.979 55.9347 111.01 55.9347 111.055V111.399C55.9411 111.387 55.947 111.374 55.9569 111.361C56.0749 111.176 56.282 110.979 56.5826 110.979C56.6239 110.979 56.6589 111.01 56.6589 111.055C56.6589 111.096 56.6239 111.131 56.5826 111.131C56.3785 111.131 56.2378 111.246 56.1295 111.387C56.0243 111.527 55.9633 111.686 55.9411 111.75C55.9347 111.763 55.9347 111.77 55.9347 111.776V112.462C55.9347 112.507 55.8998 112.538 55.861 112.538C55.8162 112.538 55.7812 112.507 55.7812 112.462V111.055Z" fill="#C7C7C7"/>
<path d="M59.387 112.235C59.2502 112.42 59.0328 112.538 58.7873 112.538C58.3658 112.538 58.0312 112.187 58.0312 111.759C58.0312 111.325 58.3662 110.974 58.7873 110.974C59.0328 110.974 59.2498 111.095 59.387 111.281V110.381C59.387 110.34 59.4219 110.305 59.4667 110.305C59.5085 110.305 59.5434 110.34 59.5434 110.381V111.727V111.759V112.461C59.5434 112.502 59.5085 112.537 59.4667 112.537C59.4219 112.537 59.387 112.502 59.387 112.461V112.235ZM59.387 111.785V111.734C59.3747 111.398 59.1101 111.13 58.7873 111.13C58.4587 111.13 58.1877 111.411 58.1877 111.759C58.1877 112.103 58.4587 112.381 58.7873 112.381C59.1096 112.382 59.3742 112.116 59.387 111.785Z" fill="#C7C7C7"/>
<path d="M60.0781 111.76C60.0781 111.326 60.4166 110.975 60.8377 110.975C61.2391 110.975 61.5584 111.293 61.5903 111.702V111.705V111.715C61.5903 111.756 61.5554 111.785 61.5136 111.785H60.2316C60.2474 112.126 60.5155 112.385 60.8377 112.385C61.0448 112.385 61.2366 112.276 61.3414 112.101C61.3635 112.063 61.4113 112.056 61.4432 112.076C61.4782 112.101 61.4914 112.146 61.4688 112.184C61.3355 112.398 61.1023 112.538 60.8377 112.538C60.4161 112.538 60.0781 112.187 60.0781 111.76ZM60.241 111.635H61.4245C61.3734 111.342 61.1245 111.128 60.8377 111.128C60.544 111.128 60.298 111.338 60.241 111.635Z" fill="#C7C7C7"/>
<path d="M62.5521 111.052C62.5521 111.091 62.5138 111.129 62.4759 111.129H62.2747V112.268C62.2747 112.344 62.3514 112.383 62.3893 112.383C62.4277 112.383 62.469 112.424 62.469 112.462C62.469 112.5 62.4277 112.538 62.3893 112.538C62.2334 112.538 62.1148 112.424 62.1148 112.267V111.129H61.92C61.8437 111.129 61.8438 111.09 61.8438 111.052C61.8438 111.014 61.8437 110.976 61.92 110.976H62.1148V110.395C62.1148 110.357 62.1532 110.318 62.1915 110.318C62.2329 110.318 62.2742 110.357 62.2742 110.395V110.976H62.4754C62.5138 110.976 62.5521 111.014 62.5521 111.052Z" fill="#C7C7C7"/>
<path d="M64.511 111.051V112.462C64.511 112.503 64.4761 112.538 64.4343 112.538C64.3929 112.538 64.358 112.503 64.358 112.462V112.229C64.2242 112.414 64.0102 112.538 63.7711 112.538C63.3599 112.538 63.0312 112.184 63.0312 111.756C63.0312 111.329 63.3599 110.975 63.7711 110.975C64.0102 110.975 64.2242 111.096 64.358 111.281V111.051C64.358 111.007 64.3929 110.975 64.4343 110.975C64.4761 110.975 64.511 111.007 64.511 111.051ZM64.358 111.756C64.358 111.406 64.0933 111.125 63.7711 111.125C63.4523 111.125 63.1842 111.406 63.1842 111.756C63.1842 112.108 63.4523 112.384 63.7711 112.384C64.0933 112.384 64.358 112.108 64.358 111.756Z" fill="#C7C7C7"/>
<path d="M65.1719 110.541C65.1719 110.5 65.2068 110.465 65.2486 110.465C65.2934 110.465 65.3283 110.5 65.3283 110.541V110.614C65.3283 110.659 65.2934 110.697 65.2486 110.697C65.2068 110.697 65.1719 110.659 65.1719 110.614V110.541ZM65.1719 111.052C65.1719 111.007 65.2068 110.975 65.2486 110.975C65.2934 110.975 65.3283 111.007 65.3283 111.052V112.462C65.3283 112.503 65.2934 112.538 65.2486 112.538C65.2068 112.538 65.1719 112.503 65.1719 112.462V111.052Z" fill="#C7C7C7"/>
<path d="M66.0234 110.381C66.0234 110.34 66.0584 110.305 66.0997 110.305C66.1445 110.305 66.1794 110.34 66.1794 110.381V112.461C66.1794 112.503 66.1445 112.538 66.0997 112.538C66.0584 112.538 66.0234 112.503 66.0234 112.461V110.381Z" fill="#C7C7C7"/>
<path d="M66.689 112.213C66.7146 112.181 66.7623 112.174 66.7978 112.203C66.906 112.283 67.0781 112.384 67.2764 112.384C67.3974 112.384 67.5027 112.347 67.573 112.289C67.6498 112.238 67.6911 112.168 67.6911 112.098C67.6876 112.024 67.6591 111.973 67.5794 111.906C67.512 111.855 67.4009 111.816 67.2474 111.791L67.241 111.788C67.1003 111.762 66.9758 111.731 66.8868 111.667C66.7879 111.61 66.7176 111.507 66.7176 111.386C66.7176 111.262 66.7879 111.153 66.8868 111.08C66.9793 111.016 67.1096 110.975 67.269 110.975C67.4702 110.975 67.6139 111.068 67.7349 111.144C67.7698 111.169 67.7796 111.217 67.757 111.253C67.7349 111.287 67.6872 111.297 67.6517 111.275C67.5371 111.198 67.422 111.119 67.269 111.119C67.1416 111.119 67.0393 111.154 66.9724 111.208C66.9084 111.259 66.8735 111.323 66.8735 111.387C66.8735 111.451 66.9025 111.496 66.963 111.543C67.0334 111.591 67.1382 111.629 67.2818 111.652H67.2882C67.4382 111.674 67.5597 111.718 67.668 111.779C67.7703 111.846 67.8436 111.967 67.8436 112.098C67.8436 112.229 67.7703 112.334 67.665 112.414C67.5563 112.494 67.4289 112.538 67.2759 112.538C67.0235 112.535 66.8258 112.417 66.6984 112.315C66.6664 112.286 66.6634 112.244 66.689 112.213Z" fill="#C7C7C7"/>
<path d="M68.4875 112.219C68.577 112.219 68.6469 112.289 68.6469 112.378C68.6469 112.468 68.5766 112.538 68.4875 112.538C68.398 112.538 68.3281 112.467 68.3281 112.378C68.3281 112.289 68.398 112.219 68.4875 112.219Z" fill="#C7C7C7"/>
<path d="M207.764 139.194C207.688 139.215 207.606 139.22 207.523 139.207C207.215 139.158 207.005 138.868 207.054 138.56C207.284 137.123 207.394 135.639 207.383 134.15C207.38 133.839 207.627 133.58 207.944 133.581C208.256 133.578 208.51 133.829 208.513 134.142C208.525 135.693 208.41 137.24 208.171 138.739C208.134 138.963 207.969 139.136 207.764 139.194ZM207.82 130.934C207.797 130.941 207.772 130.946 207.747 130.949C207.437 130.993 207.152 130.778 207.109 130.468C206.934 129.219 206.672 127.959 206.328 126.723C206.274 126.529 206.218 126.334 206.159 126.14C206.07 125.84 206.24 125.526 206.538 125.437C206.542 125.435 206.547 125.435 206.549 125.434C206.845 125.351 207.154 125.521 207.242 125.816C207.302 126.018 207.361 126.22 207.417 126.421C207.773 127.705 208.046 129.015 208.227 130.312C208.268 130.595 208.089 130.859 207.82 130.934ZM204.992 147.008C204.969 146.999 204.945 146.989 204.923 146.977C204.646 146.831 204.541 146.49 204.686 146.214C205.274 145.098 205.797 143.922 206.24 142.718C206.31 142.529 206.378 142.337 206.444 142.145C206.546 141.85 206.868 141.695 207.163 141.796C207.166 141.797 207.17 141.799 207.173 141.8C207.461 141.906 207.613 142.224 207.512 142.515C207.443 142.714 207.373 142.912 207.301 143.108C206.841 144.359 206.298 145.581 205.686 146.74C205.552 146.994 205.254 147.104 204.992 147.008ZM205.549 122.989C205.283 123.062 204.996 122.931 204.882 122.671C204.292 121.329 203.594 120.01 202.807 118.751C202.641 118.486 202.722 118.138 202.987 117.972C203.254 117.806 203.6 117.887 203.766 118.152C204.581 119.457 205.304 120.824 205.916 122.216C206.042 122.503 205.913 122.835 205.627 122.961C205.601 122.973 205.576 122.982 205.549 122.989ZM201.257 115.928C201.047 115.986 200.811 115.919 200.666 115.737C199.747 114.592 198.734 113.496 197.653 112.476C197.427 112.262 197.416 111.905 197.63 111.678C197.845 111.451 198.202 111.441 198.429 111.655C199.547 112.71 200.596 113.844 201.547 115.029C201.743 115.272 201.704 115.629 201.46 115.824C201.398 115.873 201.329 115.907 201.257 115.928ZM195.313 110.183C195.15 110.228 194.968 110.2 194.822 110.089C193.655 109.211 192.405 108.39 191.106 107.65C190.836 107.496 190.741 107.151 190.896 106.879C191.049 106.607 191.394 106.514 191.667 106.668C193.006 107.431 194.297 108.279 195.502 109.187C195.751 109.375 195.801 109.729 195.613 109.977C195.536 110.082 195.429 110.151 195.313 110.183ZM188.176 106.007C188.054 106.04 187.92 106.034 187.796 105.979C186.985 105.62 186.15 105.283 185.313 104.978C184.758 104.775 184.195 104.583 183.626 104.4C183.33 104.305 183.165 103.987 183.261 103.69C183.356 103.393 183.672 103.227 183.971 103.325C184.555 103.512 185.132 103.709 185.7 103.916C186.561 104.23 187.42 104.576 188.253 104.946C188.538 105.072 188.668 105.406 188.541 105.691C188.47 105.853 188.333 105.963 188.176 106.007ZM180.321 103.4C180.232 103.424 180.136 103.428 180.04 103.405C178.632 103.07 177.154 102.783 175.648 102.552C175.339 102.504 175.127 102.216 175.174 101.908C175.223 101.598 175.512 101.389 175.819 101.434C177.355 101.67 178.863 101.963 180.301 102.305C180.605 102.377 180.793 102.682 180.721 102.985C180.671 103.193 180.512 103.346 180.321 103.4ZM172.145 102.08C172.081 102.098 172.012 102.105 171.942 102.098C170.483 101.963 168.977 101.873 167.466 101.831C167.153 101.822 166.908 101.561 166.916 101.25C166.924 100.937 167.188 100.695 167.496 100.7C169.033 100.743 170.563 100.835 172.046 100.973C172.357 101.002 172.585 101.278 172.556 101.588C172.535 101.828 172.365 102.019 172.145 102.08ZM163.865 101.798C163.821 101.81 163.774 101.817 163.725 101.819C162.262 101.848 160.753 101.919 159.236 102.033C158.925 102.056 158.654 101.822 158.631 101.511C158.607 101.2 158.844 100.926 159.152 100.906C160.688 100.791 162.22 100.718 163.703 100.688C164.015 100.683 164.273 100.93 164.279 101.242C164.284 101.505 164.108 101.73 163.865 101.798ZM119.976 113.884C119.734 113.951 119.468 113.851 119.336 113.622C119.18 113.353 119.272 113.007 119.542 112.851C120.83 112.106 122.178 111.38 123.549 110.692C123.83 110.551 124.168 110.665 124.308 110.943C124.447 111.223 124.335 111.562 124.056 111.702C122.705 112.38 121.375 113.096 120.107 113.829C120.065 113.853 120.021 113.872 119.976 113.884ZM113.351 118.791C113.124 118.898 112.844 118.844 112.676 118.642C112.476 118.402 112.509 118.046 112.748 117.846C113.89 116.893 115.095 115.948 116.329 115.037C116.582 114.85 116.934 114.904 117.119 115.155C117.305 115.407 117.252 115.76 117.001 115.945C115.785 116.844 114.597 117.775 113.472 118.713C113.434 118.745 113.393 118.771 113.351 118.791ZM155.594 102.375C155.566 102.383 155.537 102.39 155.507 102.393C154.046 102.564 152.547 102.776 151.055 103.024C150.748 103.075 150.457 102.866 150.406 102.559C150.354 102.252 150.57 101.952 150.87 101.909C152.38 101.658 153.896 101.443 155.376 101.27C155.687 101.234 155.967 101.456 156.003 101.766C156.036 102.046 155.858 102.302 155.594 102.375ZM127.357 110.127C127.092 110.201 126.807 110.072 126.691 109.814C126.564 109.528 126.691 109.194 126.976 109.067C128.34 108.456 129.752 107.866 131.172 107.312C131.456 107.205 131.791 107.344 131.904 107.634C132.017 107.924 131.873 108.253 131.582 108.366C130.18 108.913 128.785 109.496 127.438 110.098C127.411 110.111 127.384 110.12 127.357 110.127ZM147.41 103.701C147.397 103.704 147.384 103.708 147.373 103.71C145.912 104.011 144.437 104.351 142.991 104.718C142.688 104.795 142.381 104.611 142.304 104.309C142.228 104.011 142.405 103.708 142.7 103.625C142.704 103.624 142.709 103.623 142.712 103.622C144.175 103.25 145.666 102.907 147.143 102.602C147.449 102.54 147.748 102.737 147.811 103.042C147.872 103.335 147.694 103.622 147.41 103.701ZM135.064 107.086C134.778 107.165 134.478 107.01 134.379 106.726C134.277 106.431 134.434 106.109 134.729 106.007C136.147 105.518 137.604 105.052 139.06 104.625C139.063 104.624 139.066 104.623 139.069 104.623C139.366 104.54 139.674 104.711 139.762 105.008C139.85 105.307 139.679 105.621 139.379 105.709C137.94 106.132 136.499 106.592 135.098 107.076C135.087 107.08 135.075 107.083 135.064 107.086Z" fill="#7A7A7A"/>
<path d="M196.481 170.62L204.682 145.505L214.261 141.736L196.481 170.62Z" fill="#2D89E7"/>
<path d="M196.485 170.621L201.218 146.033L194.786 144.919L196.485 170.621Z" fill="#2D89E7"/>
<path d="M201.221 146.033L203.577 148.914L196.488 170.621L201.221 146.033Z" fill="#2D89E7"/>
<path opacity="0.2" d="M196.418 170.447L204.62 145.331L214.199 141.562L196.418 170.447Z" fill="white"/>
<path opacity="0.2" d="M196.422 170.447L201.155 145.859L194.724 144.745L196.422 170.447Z" fill="white"/>
<path opacity="0.2" d="M201.159 145.859L203.514 148.74L196.425 170.447L201.159 145.859Z" fill="black"/>
</svg>
