<svg width="207" height="245" viewBox="0 0 207 245" fill="none" xmlns="http://www.w3.org/2000/svg">
<path d="M165.279 155.946L184.337 123.247L198.888 120.856L165.279 155.946Z" fill="#2D89E7"/>
<path d="M165.284 155.947L179.326 122.94L170.655 119.441L165.284 155.947Z" fill="#2D89E7"/>
<path d="M179.324 122.94L181.755 127.685L165.283 155.947L179.324 122.94Z" fill="#2D89E7"/>
<path d="M183.879 111.411C183.808 111.446 183.73 111.467 183.646 111.47C183.334 111.48 183.073 111.235 183.063 110.923C183.016 109.468 182.844 107.991 182.551 106.53C182.49 106.226 182.683 105.925 182.994 105.866C183.3 105.804 183.597 106.002 183.659 106.309C183.964 107.829 184.144 109.37 184.193 110.887C184.199 111.115 184.07 111.316 183.879 111.411ZM182.372 103.29C182.35 103.301 182.326 103.311 182.303 103.319C182.006 103.42 181.686 103.263 181.585 102.967C181.178 101.773 180.681 100.586 180.11 99.437C180.021 99.2567 179.928 99.0759 179.834 98.8965C179.689 98.6193 179.797 98.2785 180.073 98.1341C180.077 98.1321 180.081 98.1307 180.083 98.1292C180.358 97.9925 180.694 98.1004 180.836 98.3736C180.933 98.5607 181.029 98.7473 181.122 98.9348C181.715 100.128 182.231 101.362 182.654 102.602C182.747 102.872 182.622 103.165 182.372 103.29ZM182.636 119.608C182.612 119.604 182.587 119.598 182.563 119.591C182.263 119.5 182.095 119.185 182.186 118.886C182.552 117.68 182.843 116.426 183.05 115.159C183.083 114.961 183.113 114.76 183.142 114.559C183.186 114.249 183.473 114.036 183.781 114.08C183.785 114.081 183.79 114.081 183.793 114.082C184.095 114.132 184.305 114.415 184.261 114.72C184.231 114.928 184.199 115.136 184.166 115.342C183.95 116.658 183.648 117.961 183.267 119.214C183.184 119.489 182.911 119.653 182.636 119.608ZM178.639 95.9175C178.391 96.0401 178.084 95.966 177.923 95.732C177.09 94.5259 176.155 93.3631 175.144 92.2754C174.931 92.0469 174.945 91.6892 175.174 91.4766C175.404 91.2627 175.76 91.2772 175.972 91.5059C177.019 92.6332 177.989 93.8387 178.853 95.0896C179.03 95.3471 178.967 95.6984 178.709 95.8758C178.687 95.8922 178.663 95.9056 178.639 95.9175ZM173.088 89.7961C172.892 89.8936 172.648 89.8718 172.472 89.7208C171.352 88.7707 170.15 87.8859 168.896 87.0892C168.633 86.9219 168.555 86.573 168.723 86.3094C168.89 86.0463 169.239 85.9683 169.502 86.1358C170.8 86.9599 172.044 87.8756 173.202 88.8595C173.441 89.0607 173.47 89.4183 173.268 89.6556C173.216 89.7158 173.155 89.7626 173.088 89.7961ZM166.164 85.2796C166.013 85.3551 165.828 85.3618 165.664 85.2807C164.352 84.6391 162.969 84.0696 161.554 83.589C161.259 83.4886 161.102 83.1677 161.201 82.8716C161.301 82.5749 161.622 82.4191 161.919 82.5186C163.379 83.0146 164.806 83.6023 166.161 84.266C166.442 84.4033 166.557 84.7416 166.42 85.0214C166.364 85.1384 166.272 85.2267 166.164 85.2796ZM158.366 82.5297C158.252 82.5858 158.12 82.6048 157.988 82.5745C157.124 82.3756 156.24 82.2027 155.36 82.061C154.777 81.9667 154.187 81.8848 153.595 81.813C153.285 81.7759 153.063 81.4946 153.102 81.1846C153.139 80.8752 153.418 80.6518 153.73 80.6915C154.339 80.7649 154.942 80.8491 155.539 80.945C156.444 81.0905 157.353 81.2682 158.241 81.4733C158.545 81.5435 158.735 81.8469 158.665 82.1509C158.626 82.3229 158.512 82.4575 158.366 82.5297ZM150.159 81.4559C150.076 81.4967 149.983 81.5187 149.885 81.5144C148.438 81.4518 146.933 81.4496 145.41 81.5078C145.098 81.5193 144.836 81.2766 144.823 80.9645C144.813 80.6513 145.057 80.3911 145.367 80.3777C146.92 80.3185 148.456 80.3215 149.933 80.3845C150.245 80.3983 150.487 80.6617 150.474 80.9733C150.464 81.1872 150.337 81.3674 150.159 81.4559ZM141.882 81.7071C141.822 81.7369 141.756 81.7569 141.686 81.7635C140.228 81.9067 138.732 82.1029 137.24 82.3475C136.931 82.3983 136.641 82.1886 136.59 81.8816C136.538 81.573 136.752 81.2852 137.056 81.2318C138.572 80.9835 140.093 80.7843 141.575 80.6392C141.886 80.6083 142.162 80.8361 142.192 81.1459C142.217 81.3861 142.086 81.6054 141.882 81.7071ZM133.697 82.9964C133.656 83.0167 133.612 83.0327 133.564 83.0435C132.133 83.3488 130.665 83.7048 129.197 84.1033C128.896 84.1851 128.586 84.0068 128.504 83.7057C128.422 83.4041 128.602 83.091 128.901 83.0122C130.388 82.6087 131.878 82.2472 133.329 81.9374C133.634 81.8732 133.934 82.0675 133.999 82.3727C134.054 82.6297 133.924 82.884 133.697 82.9964ZM92.8886 103.169C92.6634 103.281 92.3828 103.232 92.2103 103.033C92.0059 102.798 92.0314 102.44 92.2666 102.236C93.3906 101.262 94.5771 100.294 95.793 99.3583C96.0419 99.1664 96.3956 99.2144 96.5853 99.4618C96.7753 99.7096 96.7298 100.064 96.4819 100.254C95.2833 101.176 94.1134 102.13 93.0062 103.09C92.97 103.122 92.9302 103.148 92.8886 103.169ZM87.3117 109.24C87.1086 109.389 86.8239 109.388 86.6204 109.222C86.379 109.024 86.3433 108.668 86.5407 108.427C87.4821 107.275 88.4865 106.119 89.5256 104.991C89.7386 104.759 90.0949 104.746 90.3238 104.957C90.5534 105.169 90.5683 105.527 90.3573 105.756C89.3328 106.868 88.3427 108.007 87.4152 109.142C87.3839 109.18 87.3491 109.213 87.3117 109.24ZM125.685 85.1287C125.659 85.1414 125.632 85.1534 125.603 85.1622C124.201 85.6065 122.77 86.0985 121.351 86.6239C121.059 86.7324 120.734 86.5826 120.625 86.2905C120.516 85.9986 120.672 85.6634 120.959 85.5646C122.393 85.0323 123.841 84.5347 125.263 84.0844C125.56 83.99 125.878 84.1552 125.972 84.4529C126.057 84.7213 125.93 85.0067 125.685 85.1287ZM99.4253 98.0834C99.1792 98.2059 98.8743 98.1328 98.7123 97.9013C98.5328 97.6449 98.5949 97.2932 98.8504 97.1148C100.075 96.2566 101.349 95.4103 102.638 94.5977C102.897 94.438 103.252 94.5113 103.418 94.7751C103.584 95.0386 103.505 95.388 103.241 95.5548C101.967 96.3566 100.708 97.1928 99.4996 98.0396C99.4754 98.0569 99.4502 98.0712 99.4253 98.0834ZM117.9 87.9788C117.888 87.9846 117.876 87.9904 117.865 87.9951C116.488 88.567 115.104 89.1792 113.753 89.8135C113.471 89.9467 113.134 89.8245 113.001 89.5421C112.87 89.2637 112.986 88.9325 113.261 88.7958C113.265 88.7937 113.269 88.7923 113.272 88.7905C114.638 88.1482 116.038 87.5292 117.43 86.9507C117.719 86.831 118.05 86.9682 118.169 87.2557C118.284 87.5325 118.164 87.8479 117.9 87.9788ZM106.417 93.6386C106.152 93.7702 105.828 93.6748 105.677 93.4146C105.521 93.144 105.614 92.7982 105.885 92.643C107.184 91.8942 108.527 91.1612 109.876 90.4658C109.878 90.4646 109.881 90.4632 109.884 90.4623C110.16 90.3247 110.495 90.4348 110.638 90.7093C110.781 90.986 110.672 91.3269 110.394 91.4702C109.061 92.1581 107.733 92.8823 106.449 93.6227C106.439 93.6285 106.428 93.6334 106.417 93.6386Z" fill="#7A7A7A"/>
<path opacity="0.2" d="M165.247 155.684L184.306 122.985L198.857 120.595L165.247 155.684Z" fill="white"/>
<path opacity="0.2" d="M165.253 155.685L179.294 122.678L170.623 119.179L165.253 155.685Z" fill="white"/>
<path opacity="0.2" d="M179.285 122.676L181.716 127.421L165.244 155.683L179.285 122.676Z" fill="black"/>
<path d="M155.5 245C176.211 245 193 228.211 193 207.5C193 186.789 176.211 170 155.5 170C134.789 170 118 186.789 118 207.5C118 228.211 134.789 245 155.5 245Z" fill="#2D89E7"/>
<path opacity="0.53" d="M155.5 245C176.211 245 193 228.211 193 207.5C193 186.789 176.211 170 155.5 170C134.789 170 118 186.789 118 207.5C118 228.211 134.789 245 155.5 245Z" fill="white"/>
<path d="M167.274 218.17C164.665 218.17 162.468 219.939 161.802 222.338H146.983C146.442 220.385 144.885 218.857 142.918 218.353V216.657H168.394C169.122 216.657 169.746 216.14 169.883 215.424L172.882 199.644C172.967 199.201 172.848 198.743 172.561 198.395C172.272 198.047 171.845 197.846 171.394 197.846H142.919V190.756C142.919 190.096 142.492 189.513 141.863 189.311L133.617 186.688C132.819 186.438 131.967 186.874 131.712 187.672C131.459 188.47 131.899 189.322 132.697 189.577L139.888 191.865V218.41C137.545 219.111 135.831 221.284 135.831 223.854C135.831 226.988 138.38 229.536 141.513 229.536C144.122 229.536 146.319 227.768 146.985 225.369H161.805C162.47 227.768 164.668 229.536 167.276 229.536C170.41 229.536 172.959 226.988 172.959 223.854C172.957 220.72 170.408 218.17 167.274 218.17ZM149.847 200.878H154.204V213.624V213.628H149.846V213.624V200.878H149.847ZM157.234 200.878H161.59V213.624V213.628H157.233V213.624V200.878H157.234ZM167.138 213.627H164.622V213.623V200.877H169.561L167.138 213.627ZM146.815 200.878V213.624V213.628H142.917V200.878H146.815ZM141.511 226.505C140.049 226.505 138.859 225.315 138.859 223.853C138.859 222.391 140.049 221.201 141.511 221.201C142.973 221.201 144.163 222.391 144.163 223.853C144.163 225.316 142.974 226.505 141.511 226.505ZM167.274 226.505C165.812 226.505 164.622 225.315 164.622 223.853C164.622 222.391 165.812 221.201 167.274 221.201C168.736 221.201 169.926 222.391 169.926 223.853C169.926 225.316 168.736 226.505 167.274 226.505Z" fill="#263238"/>
<path d="M174.251 207.5C180.37 207.5 185.331 202.54 185.331 196.421C185.331 190.302 180.37 185.342 174.251 185.342C168.132 185.342 163.172 190.302 163.172 196.421C163.172 202.54 168.132 207.5 174.251 207.5Z" fill="white" stroke="#263238" stroke-width="2" stroke-miterlimit="10"/>
<path d="M168.562 195.668L172.711 200.276L180.178 192.707" stroke="#263238" stroke-width="2" stroke-miterlimit="10" stroke-linecap="round" stroke-linejoin="round"/>
<path d="M81.5321 207.062C81.5321 213.777 63.2807 219.221 40.766 219.221C18.2514 219.221 0 213.777 0 207.062C0 200.348 18.2514 194.904 40.766 194.904C63.2807 194.904 81.5321 200.348 81.5321 207.062Z" fill="#E1EAEE"/>
<path d="M19.2455 96.8982C19.2455 96.8982 20.9775 88.7122 20.9298 85.6392C20.8826 82.5657 20.462 77.4474 20.462 77.4474L21.8395 58.8999L11.6652 51.6543C11.6652 51.6543 9.77062 59.8434 8.92794 62.5045C8.08527 65.1661 7.875 71.922 7.875 74.3787C7.875 76.8359 8.50633 84.206 9.97981 89.1193C12.0862 96.1418 14.4019 102.017 14.4019 102.017L19.2455 96.8982Z" fill="#FAC4A8"/>
<path d="M23.1828 35.537C20.5411 35.3922 14.7593 39.3867 12.4217 44.159C10.084 48.9308 7.67188 60.5169 7.67188 60.5169C7.67188 60.5169 10.6617 62.0972 14.129 63.3057C18.1209 64.6971 22.3332 65.8342 22.3332 65.8342C22.3332 65.8342 23.5765 54.7539 24.7947 50.444C26.0123 46.134 25.8256 35.6808 23.1828 35.537Z" fill="#2D89E7"/>
<path d="M54.6351 195.571L65.4638 195.357C65.4638 195.357 67.8116 201.209 67.5091 204.853C67.3584 206.683 66.0903 207.065 63.5763 208.71C61.9998 209.744 59.8794 211.925 57.3997 213.257C54.7638 214.672 47.8196 214.968 44.9918 213.887C39.0614 211.621 41.0412 208.737 44.3417 206.316C45.5089 205.459 47.5305 203.654 48.5331 202.435C51.4843 198.828 54.6351 195.571 54.6351 195.571Z" fill="#8AB7E5"/>
<path d="M58.245 200.119C58.245 200.119 55.2959 198.816 52.1875 199.205" stroke="#2D89E7" stroke-width="1.0104" stroke-miterlimit="10"/>
<path d="M56.2617 203.007C56.2617 203.007 53.3121 201.703 50.2031 202.092" stroke="#2D89E7" stroke-width="1.0104" stroke-miterlimit="10"/>
<path d="M67.1227 203.689C67.1227 203.689 63.7723 205.421 61.5302 207.484C59.2875 209.551 57.452 212.105 54.4138 212.958C51.3741 213.809 44.5436 213.846 41.3516 211.497" stroke="#2D89E7" stroke-width="1.0104" stroke-miterlimit="10"/>
<path d="M38.8943 122.834C38.0913 117.439 37.2556 112.047 36.7428 106.614C35.9388 98.0978 35.8728 102.527 35.8047 93.9815C37.3876 93.65 38.7334 93.415 39.597 93.356C43.7444 93.0696 58.9362 90.334 58.9362 90.334C58.9362 90.334 63.8319 94.2052 64.3758 102.723C65.0243 112.893 64.9798 122.062 64.3758 127.199C63.7713 132.336 63.1667 142.005 63.1667 142.005C63.1667 142.005 68.0383 157.819 68.3043 161.949C68.5259 165.384 67.6998 176.152 66.8936 186.33C66.4935 191.383 66.686 195.191 66.686 195.191C66.686 195.191 63.2027 197.356 58.9367 197.607C53.8002 197.909 51.3827 195.793 51.3827 195.793C51.3827 195.793 50.894 191.537 50.1742 186.728C48.6835 176.783 45.8396 159.937 43.5261 147.445C41.1359 134.536 38.7527 115.11 38.7527 115.11C38.7527 115.11 38.845 118.333 38.8943 122.834Z" fill="#363636"/>
<path d="M63.0032 110.36C63.0032 110.36 55.6761 108.487 53.8438 99.873" stroke="#2D89E7" stroke-miterlimit="10"/>
<path d="M62.7107 112.954C62.7107 112.954 54.3022 110.805 52.2891 101.887" stroke="#2D89E7" stroke-miterlimit="10" stroke-dasharray="3 2"/>
<path d="M61.6508 113.1C61.6508 113.1 61.6272 113.388 61.5859 113.9" stroke="#2D89E7" stroke-miterlimit="10"/>
<path d="M61.5015 114.959C61.1716 119.114 60.3981 129.168 60.2399 134.05C60.0446 140.091 61.2681 146.721 61.2681 146.721C61.2681 146.721 64.9746 157.27 64.9746 160.44C64.9746 163.29 65.179 174.809 64.9746 178.269C64.811 181.053 64.324 190.118 64.1394 193.553" stroke="#2D89E7" stroke-miterlimit="10" stroke-dasharray="2.97 1.98"/>
<path d="M64.1054 194.086C64.0781 194.595 64.0625 194.888 64.0625 194.888" stroke="#2D89E7" stroke-miterlimit="10"/>
<path d="M12.8427 203.107C14.078 202.369 16.8356 200.78 17.9379 199.675C20.607 196.994 23.3903 195.165 24.299 194.377L35.9109 194.24C35.9109 194.24 36.9735 201.163 36.5202 203.715C36.2016 205.489 34.911 205.749 32.2698 207.135C30.615 208.008 27.1387 210.54 24.5597 211.625C21.8192 212.773 14.9126 212.454 12.2097 211.146C6.54324 208.409 9.35126 205.174 12.8427 203.107Z" fill="#8AB7E5"/>
<path d="M27.7712 198.269C27.7712 198.269 24.968 196.738 21.8516 196.843" stroke="#2D89E7" stroke-width="1.0104" stroke-miterlimit="10"/>
<path d="M25.5447 200.912C25.5447 200.912 22.742 199.383 19.625 199.488" stroke="#2D89E7" stroke-width="1.0104" stroke-miterlimit="10"/>
<path d="M13.2188 210.913C13.2188 210.913 18.1659 211.772 22.2205 210.873C25.6797 210.101 28.3488 206.36 31.6563 205.314C34.9637 204.27 36.1631 202.295 36.1631 202.295" stroke="#2D89E7" stroke-width="1.0104" stroke-miterlimit="10"/>
<path d="M43.8675 96.6569C39.7158 96.7995 21.2493 94.5488 21.2493 94.5488C21.2493 94.5488 17.9698 117.518 19.0077 126.484C19.8268 133.557 19.3977 144.605 19.5404 147.195C19.6846 149.785 20.7429 159.084 20.9119 161.113C21.8597 172.532 22.977 193.982 22.977 193.982C22.977 193.982 24.7895 195.19 28.7181 195.795C32.1451 196.322 36.2727 194.888 36.2727 194.888C36.2727 194.888 39.026 169.629 39.8992 160.455C40.5059 154.115 38.4392 146.54 38.4392 146.54L41.5551 126.912C41.5551 126.912 45.9508 114.804 45.9117 106.738C45.8757 98.6753 43.8675 96.6569 43.8675 96.6569Z" fill="#363636"/>
<path d="M24.9408 100.799C24.9408 100.799 24.3314 107.67 19.9453 110.695" stroke="#2D89E7" stroke-miterlimit="10"/>
<path d="M26.4953 101.332C26.4953 101.332 26.1884 105.859 24.3529 108.908C22.5233 111.956 20.375 112.885 20.375 112.885" stroke="#2D89E7" stroke-miterlimit="10" stroke-dasharray="3 2"/>
<path d="M61.3585 97.2812C59.3492 99.57 45.9934 102.546 36.9214 102.297C22.2848 101.897 20.9062 98.9736 20.9062 98.9736" stroke="#2D89E7" stroke-miterlimit="10"/>
<path d="M36.5625 103.061C36.5625 103.061 37.7978 122.058 40.5168 129.612" stroke="#2D89E7" stroke-miterlimit="10"/>
<path d="M32.1406 102.211C32.1406 102.211 35.6267 117.845 39.14 116.631" stroke="#2D89E7" stroke-miterlimit="10"/>
<path d="M16.825 47.689C17.104 45.3637 16.9763 39.634 19.3938 37.5458C21.8108 35.4576 24.7277 34.3516 27.4832 33.6542C29.4212 33.1656 35.5581 31.5548 39.0034 31.1906C49.2705 30.0947 59.005 33.4869 61.6591 36.6972C63.478 38.8986 63.0183 48.3311 62.8676 53.0149C62.7169 57.6987 61.7943 65.2485 61.7943 72.382C61.7943 79.5155 63.22 94.6225 63.22 94.6225C63.22 94.6225 57.8244 99.3814 42.1595 100.604C23.8947 102.032 19.9983 96.9929 19.9983 96.9929C19.9983 96.9929 20.723 71.8295 19.4732 67.2905C17.9005 61.5822 16.4217 51.0694 16.825 47.689Z" fill="#2D89E7"/>
<path d="M30.5416 27.3146L42.3777 21.6738L46.6281 33.9696C46.6281 33.9696 43.5245 42.8872 37.6365 43.0438C31.3205 43.2122 29.6641 36.1377 29.6641 36.1377L30.5416 27.3146Z" fill="#FAC4A8"/>
<path d="M23.0329 9.32108C23.0329 9.32108 19.3087 12.5126 20.5011 18.2167C21.6935 23.925 24.1872 23.8123 25.8709 22.0503C27.5563 20.2871 32.1714 12.0326 32.1714 12.0326L28.4231 6.01367L23.0329 9.32108Z" fill="#123A5E"/>
<path d="M22.1533 13.3848C20.5328 17.4947 21.81 20.0361 23.0689 23.9545C24.2908 27.7543 25.9869 31.1438 29.2095 32.3877C33.4862 34.035 37.9587 33.0196 40.8997 28.4554C42.2118 26.4176 43.7244 22.5641 44.0377 18.6587C44.4222 13.8649 39.2063 5.6087 34.1363 4.90065C29.069 4.19208 23.7726 9.27388 22.1533 13.3848Z" fill="#FAC4A8"/>
<path d="M33.3906 10.4082L41.0214 4.68376C41.0214 4.68376 43.9608 4.1892 45.5378 6.90122C47.0177 9.44427 45.7985 12.8155 45.6403 13.2264C45.769 14.5588 45.8564 16.5933 45.2428 17.0316C44.3138 17.6935 42.261 18.0046 41.9198 19.6031C41.5776 21.2026 40.2956 20.4543 40.1825 18.8221C40.146 18.306 40.1776 17.6313 40.1776 16.8943C39.719 16.4694 39.0179 15.1338 37.9242 14.7894C34.582 13.7376 33.3906 10.4082 33.3906 10.4082Z" fill="#123A5E"/>
<path d="M30.0703 32.7692C30.0703 32.7692 33.6969 34.5822 37.5686 32.0472C40.3514 30.2256 41.9617 25.8926 41.9617 25.8926" stroke="#D58069" stroke-miterlimit="10"/>
<path d="M27.7173 23.75C27.5038 24.333 26.8569 24.6339 26.2728 24.4204C25.6881 24.2086 25.3872 23.5644 25.5991 22.9781C25.8126 22.3923 26.4595 22.0903 27.0447 22.306C27.6288 22.5179 27.9297 23.1647 27.7173 23.75Z" fill="#2A2529"/>
<path d="M35.8658 21.7619C35.7284 22.3686 35.1271 22.7494 34.5205 22.6115C33.9117 22.4742 33.5324 21.8724 33.6681 21.2647C33.8055 20.6564 34.4078 20.2772 35.0161 20.415C35.6217 20.5518 36.0041 21.1552 35.8658 21.7619Z" fill="#2A2529"/>
<path d="M29.0965 20.4434C29.3288 20.9685 29.5112 21.5022 29.6742 22.0391C29.7579 22.3073 29.8373 22.5761 29.9049 22.8464C29.9757 23.1162 30.0513 23.386 30.1082 23.6585L30.1232 23.7293L30.0969 23.8645C30.0111 24.3022 29.936 24.7597 29.8587 25.1974C29.826 25.4179 29.7922 25.6362 29.7686 25.8491C29.7488 26.0594 29.7316 26.2697 29.7413 26.4403C29.7424 26.4665 29.7493 26.5475 29.7424 26.5309C29.7724 26.6339 29.7252 26.5132 29.7375 26.5561C29.737 26.5744 29.7649 26.6162 29.8223 26.6575C29.9328 26.7519 30.1259 26.8356 30.3276 26.8999C30.7379 27.041 31.1997 27.136 31.6793 27.2636C31.4545 27.372 31.219 27.4573 30.9777 27.5098C30.7358 27.571 30.4879 27.5978 30.2267 27.6069C29.9666 27.6053 29.6951 27.5812 29.3899 27.4573C29.2419 27.3881 29.0783 27.284 28.9437 27.1097C28.8863 27.0587 28.7892 26.8297 28.7886 26.8195C28.7463 26.6913 28.7484 26.6537 28.728 26.5647C28.6857 26.2691 28.6905 26.0095 28.7087 25.7531C28.7291 25.5 28.7634 25.2543 28.809 25.0134C28.8975 24.5296 29.03 24.0726 29.1936 23.6076L29.1824 23.813C29.148 23.5367 29.1319 23.2573 29.1115 22.9789C29.0879 22.7005 29.0761 22.4205 29.0681 22.1405C29.0477 21.5794 29.0477 21.0152 29.0965 20.4434Z" fill="#D58069"/>
<path d="M27.6001 20.6899C27.0262 20.4635 26.2908 20.3123 25.6766 20.4292C25.1654 20.5268 23.8175 21.1565 23.8604 21.7745C23.87 21.9102 23.9414 21.9922 24.0642 22.0421C24.3286 22.1489 24.4853 22.0421 24.7041 21.893C25.0791 21.6366 25.4728 21.3936 25.8981 21.2311C26.338 21.0627 27.0466 21.3062 27.5148 21.3234C27.9043 21.3384 27.9171 20.8154 27.6001 20.6899Z" fill="#123A5E"/>
<path d="M32.5107 20.4317C33.0476 20.1496 33.5792 19.8621 34.1134 19.5756C35.0012 19.0993 36.1072 19.5901 37.0556 19.7065C36.9735 19.4045 36.892 19.102 36.8099 18.8C36.9477 18.7378 36.9327 18.6986 36.7654 18.682C36.4532 18.5715 36.7353 18.8124 36.7166 18.8639C36.7713 18.7131 36.5771 18.5715 36.4473 18.6568C36.4398 18.6616 36.4323 18.6665 36.4248 18.6713C36.355 18.7169 36.3084 18.8038 36.3363 18.8885C36.4274 19.1669 36.4468 19.3396 36.6694 19.5858C36.8238 19.757 37.0641 19.7511 37.2556 19.6615C37.2707 19.6545 37.2862 19.6475 37.3012 19.64C37.6874 19.4598 37.5737 18.8435 37.1848 18.7507C36.207 18.5168 34.9121 18.1676 33.9611 18.6134C33.2745 18.9357 32.6679 19.4024 32.0848 19.8803C31.7646 20.1442 32.1733 20.6093 32.5107 20.4317Z" fill="#123A5E"/>
<path d="M30.8147 28.3478C32.7355 28.1564 33.7139 26.1363 35.0238 26.8175C36.3304 27.4993 35.4792 30.826 32.7478 30.8941C30.0176 30.9628 28.8906 28.5377 28.8906 28.5377C28.8906 28.5377 28.8906 28.5383 30.8147 28.3478Z" fill="white"/>
<path d="M38.6379 8.0881C38.6379 8.0881 34.6064 11.1638 31.5843 13.2793C28.5628 15.3943 27.505 15.8476 25.39 16.1501C23.275 16.4521 22.0665 15.9989 22.0665 15.9989C22.0665 15.9989 22.2178 20.2294 21.462 20.3807C20.7068 20.5319 20.5051 16.9874 19.9032 14.1322C19.2987 11.2614 21.5655 1.74308 31.2346 0.232594C40.9042 -1.27843 41.8107 5.06712 41.8107 5.06712L38.6379 8.0881Z" fill="#123A5E"/>
<path d="M41.8094 17.9083C42.4805 15.6126 44.9752 12.8603 46.1912 16.2466C47.1401 18.8883 44.986 23.9439 42.4965 23.1838C41.1497 22.774 41.1427 20.2057 41.8094 17.9083Z" fill="#FAC4A8"/>
<path d="M18.9488 64.145C18.9488 64.145 16.2641 47.2346 17.5386 42.1367" stroke="#3C6672" stroke-miterlimit="10"/>
<path d="M12.4112 97.2846C12.5169 100.291 11.8067 104.537 14.2151 108.095C15.5888 110.124 19.0475 111.683 19.0475 111.683C19.0475 111.683 20.9828 110.043 22.5265 107.817C23.6111 106.254 24.3969 102.622 24.3969 102.622C24.3969 102.622 23.9238 99.1486 22.5115 98.1069C20.1664 96.3776 19.2272 95.352 17.7494 94.5646C15.1339 93.1716 12.3071 94.2787 12.4112 97.2846Z" fill="#FAC4A8"/>
<path d="M15.6719 106.086C15.6719 106.086 16.7425 109.47 20.1669 110.477" stroke="#D58069" stroke-miterlimit="10"/>
<path d="M23.6715 105.217C23.6715 105.217 20.65 103.806 19.8438 101.188" stroke="#D58069" stroke-miterlimit="10"/>
<path d="M17.3516 103.627C17.3516 103.627 18.0945 105.805 21.8514 108.573" stroke="#D58069" stroke-miterlimit="10"/>
<path d="M57.7712 47.6064C53.6598 49.0091 52.3558 52.6598 53.6705 59.951C54.9857 67.2423 56.6679 72.058 56.6679 72.058C56.6679 72.058 55.2668 71.5286 53.0708 70.4805C50.8743 69.4329 46.4018 67.9943 46.4018 67.9943L43.3594 73.1501C43.3594 73.1501 51.9546 86.6662 58.9406 88.3945C63.2039 89.4479 67.0809 88.5978 68.497 86.3052C72.2351 80.2563 70.0413 55.8707 68.3827 50.887C66.7253 45.9023 61.8843 46.2065 57.7712 47.6064Z" fill="#FAC4A8"/>
<path d="M63.1308 76.6083C63.1308 76.6083 58.9737 72.6031 56.4688 71.8516" stroke="#D58069" stroke-miterlimit="10"/>
<path d="M36.0825 53.3777C36.3737 53.3316 36.6527 53.5317 36.702 53.8224L39.7021 71.4923C39.7514 71.783 39.5546 72.0646 39.2644 72.1178L29.0423 73.9849C28.7521 74.038 28.4785 73.8428 28.434 73.551L25.7091 55.5732C25.6652 55.2814 25.8674 55.0046 26.1581 54.9585L36.0825 53.3777Z" fill="#292929"/>
<path d="M28.2291 68.3119C28.0392 67.6532 28.3123 66.5504 28.3123 66.5504C28.3123 66.5504 27.4149 64.7701 28.3412 64.0776C29.2687 63.3851 30.7792 64.3554 32.125 64.6564C32.6539 64.7744 34.904 65.2094 35.7424 65.1761C37.0394 65.1257 38.4721 64.6226 38.4721 64.6226L38.0806 61.291C38.0806 61.291 41.2694 62.4191 42.0665 62.941C43.4676 63.8641 46.1769 66.1459 46.4741 67.2756C46.775 68.4025 46.1319 73.147 44.9164 74.3083C43.6977 75.4755 42.1711 76.265 39.3743 76.5043C36.8275 76.7183 32.7558 76.2366 31.3477 75.3778C28.5665 73.6807 30.0706 72.3123 30.0706 72.3123C30.0706 72.3123 29.4151 72.3123 28.9812 71.2465C28.5472 70.1807 29.0117 69.5349 29.0117 69.5349C29.0117 69.5349 28.4185 68.9701 28.2291 68.3119Z" fill="#FAC4A8"/>
<path d="M36.5265 68.6207C36.5265 68.6207 32.1919 69.6431 28.4688 66.7031" stroke="#D58069" stroke-miterlimit="10"/>
<path d="M35.1398 71.1567C35.1398 71.1567 31.7101 71.3954 29.1719 69.7363" stroke="#D58069" stroke-miterlimit="10"/>
<path d="M34.2438 73.9667C34.2438 73.9667 31.4787 73.499 29.9688 72.7754" stroke="#D58069" stroke-miterlimit="10"/>
<path d="M53.3509 59.968C50.9918 56.4423 48.4096 49.7062 48.5357 43.6643C48.6617 37.6229 51.6532 33.1617 55.1907 33.4444C58.7272 33.727 63.9082 36.1698 65.9428 40.5677C67.4061 43.7324 69.9995 54.1514 69.8923 57.1927C68.2686 56.7824 65.0647 56.6381 61.6645 57.1187C58.7465 57.5317 55.6837 58.4055 53.3509 59.968Z" fill="#2D89E7"/>
<path d="M48.9688 44.5547C48.9688 44.5547 49.7245 55.4333 53.1993 59.8146" stroke="#3C6672" stroke-miterlimit="10"/>
</svg>
